%FSLAX44Y44*%
%OFA0.0000B0.0000*%
%SFA1B1*%
%MOMM*%
%AMFRECTNOHOLE10*
21,1,2.0320,2.0320,0.0000,0.0000,0*
%
%AMFRECTNOHOLE11*
21,1,1.2700,1.2700,0.0000,0.0000,0*
%
%AMFRECTNOHOLE12*
21,1,1.9050,1.9050,0.0000,0.0000,0*
%
%ADD10FRECTNOHOLE10*%
%ADD11FRECTNOHOLE11*%
%ADD12FRECTNOHOLE12*%
%ADD13C,0.0000X0.0000*%
%ADD14C,0.2032X0.0000*%
%ADD15C,0.6000X0.0000*%
%ADD16C,0.7620X0.0000*%
%ADD17C,1.5240X0.0000*%
%ADD18C,1.2700X0.0000*%
%ADD19C,1.7780X0.0000*%
%ADD20C,2.0320X0.0000*%
%ADD21C,2.2860X0.0000*%
%ADD22C,1.5000X0.0000*%
%ADD23C,1.2000X0.0000*%
%LNBOT*%
%LPD*%
G54D10*
X576711Y388862D3*
X551311Y388862D3*
X525911Y388862D3*
X215721Y589093D3*
G54D11*
X62119Y314060D3*
X286874Y222561D3*
X573221Y533719D3*
G54D12*
X40167Y878729D3*
X63027Y878729D3*
X85887Y878729D3*
G54D14*
X-1000Y999000D2*
X-1000Y100000D1*
X602000Y999000D2*
X-1000Y999000D1*
X602000Y100000D2*
X602000Y999000D1*
X-1000Y100000D2*
X602000Y100000D1*
G54D15*
X272776Y727085D2*
X291921Y741255D1*
X144624Y665961D2*
X272776Y727085D1*
X105376Y664461D2*
X144624Y665961D1*
X78355Y687403D2*
X105376Y664461D1*
X73654Y689350D2*
X78355Y687403D1*
X57994Y689350D2*
X73654Y689350D1*
X53293Y687403D2*
X57994Y689350D1*
X23233Y664775D2*
X53293Y687403D1*
X95064Y787488D2*
X158260Y753466D1*
X93935Y831523D2*
X95064Y787488D1*
X92412Y867961D2*
X93935Y831523D1*
X92412Y869204D2*
X92412Y867961D1*
X92412Y872204D2*
X92412Y869204D1*
X85887Y878729D2*
X92412Y872204D1*
X7533Y569054D2*
X20431Y646859D1*
X7533Y557296D2*
X7533Y569054D1*
X7987Y556201D2*
X7533Y557296D1*
X35438Y513829D2*
X7987Y556201D1*
X50578Y569214D2*
X97252Y627761D1*
X50124Y568119D2*
X50578Y569214D1*
X50124Y556361D2*
X50124Y568119D1*
X50578Y555266D2*
X50124Y556361D1*
X148175Y436417D2*
X50578Y555266D1*
X35438Y513829D2*
X43444Y470567D1*
X67654Y377167D2*
X87519Y390260D1*
X67493Y377100D2*
X67654Y377167D1*
X56745Y377100D2*
X67493Y377100D1*
X56584Y377167D2*
X56745Y377100D1*
X49026Y384725D2*
X56584Y377167D1*
X30351Y429032D2*
X49026Y384725D1*
X30284Y429193D2*
X30351Y429032D1*
X30284Y439941D2*
X30284Y429193D1*
X30351Y440102D2*
X30284Y439941D1*
X43444Y470567D2*
X30351Y440102D1*
X194392Y435695D2*
X148175Y436417D1*
X23235Y744246D2*
X95064Y787488D1*
X14605Y735616D2*
X23235Y744246D1*
X13958Y734054D2*
X14605Y735616D1*
X7533Y670654D2*
X13958Y734054D1*
X7533Y658896D2*
X7533Y670654D1*
X7987Y657801D2*
X7533Y658896D1*
X16259Y649529D2*
X7987Y657801D1*
X20431Y646859D2*
X16259Y649529D1*
X210095Y755685D2*
X158260Y753466D1*
X221347Y755685D2*
X210095Y755685D1*
X221976Y755425D2*
X221347Y755685D1*
X241121Y741255D2*
X221976Y755425D1*
X140598Y386777D2*
X87519Y390260D1*
X186562Y384785D2*
X140598Y386777D1*
X202222Y384785D2*
X186562Y384785D1*
X206923Y386732D2*
X202222Y384785D1*
X339256Y450895D2*
X206923Y386732D1*
X527795Y520559D2*
X339256Y450895D1*
X527956Y520626D2*
X527795Y520559D1*
X547821Y533719D2*
X527956Y520626D1*
X272147Y603523D2*
X97252Y627761D1*
X272776Y603263D2*
X272147Y603523D1*
X291921Y589093D2*
X272776Y603263D1*
X81524Y669719D2*
X97252Y627761D1*
X81070Y670814D2*
X81524Y669719D1*
X72798Y679086D2*
X81070Y670814D1*
X71703Y679540D2*
X72798Y679086D1*
X59945Y679540D2*
X71703Y679540D1*
X58850Y679086D2*
X59945Y679540D1*
X50578Y670814D2*
X58850Y679086D1*
X38479Y657801D2*
X50578Y670814D1*
X30207Y649529D2*
X38479Y657801D1*
X29112Y649075D2*
X30207Y649529D1*
X20431Y646859D2*
X29112Y649075D1*
X103309Y430223D2*
X43444Y434567D1*
X144624Y564361D2*
X237656Y450895D1*
X65824Y562240D2*
X103309Y531823D1*
X144624Y564361D2*
X103309Y531823D1*
X151598Y579607D2*
X267057Y523106D1*
X150503Y580061D2*
X151598Y579607D1*
X138745Y580061D2*
X150503Y580061D1*
X137650Y579607D2*
X138745Y580061D1*
X105376Y562861D2*
X137650Y579607D1*
X148175Y411017D2*
X194392Y410295D1*
X253356Y445016D2*
X267057Y523106D1*
X252902Y443921D2*
X253356Y445016D1*
X244630Y435649D2*
X252902Y443921D1*
X194392Y410295D2*
X244630Y435649D1*
X342721Y589093D2*
X287357Y531319D1*
X23233Y563175D2*
X65824Y663840D1*
X135475Y423717D2*
X60838Y513829D1*
X60838Y513829D2*
X23233Y563175D1*
X475976Y755425D2*
X495121Y741255D1*
X475347Y755685D2*
X475976Y755425D1*
X120351Y807439D2*
X475347Y755685D1*
X75695Y723539D2*
X113112Y739140D1*
X113112Y739140D2*
X215721Y741255D1*
X30928Y727923D2*
X75695Y723539D1*
X113112Y739140D2*
X122260Y753466D1*
X33795Y824739D2*
X55939Y837013D1*
X56502Y866383D2*
X55939Y837013D1*
X56502Y869204D2*
X56502Y866383D1*
X56502Y872204D2*
X56502Y869204D1*
X63027Y878729D2*
X56502Y872204D1*
X75695Y825139D2*
X55939Y837013D1*
X46692Y885254D2*
X40167Y878729D1*
X46692Y888254D2*
X46692Y885254D1*
X46692Y891075D2*
X46692Y888254D1*
X50681Y895064D2*
X46692Y891075D1*
X120351Y909039D2*
X50681Y895064D1*
X568281Y401843D2*
X522421Y457519D1*
X569551Y400265D2*
X568281Y401843D1*
X569551Y399022D2*
X569551Y400265D1*
X569551Y396022D2*
X569551Y399022D1*
X576711Y388862D2*
X569551Y396022D1*
X473899Y448829D2*
X522421Y457519D1*
X472804Y448375D2*
X473899Y448829D1*
X394398Y394633D2*
X472804Y448375D1*
X581378Y433129D2*
X573221Y457519D1*
X514266Y574923D2*
X495121Y589093D1*
X553356Y546812D2*
X514266Y574923D1*
X565628Y537069D2*
X553356Y546812D1*
X566871Y537069D2*
X565628Y537069D1*
X569871Y537069D2*
X566871Y537069D1*
X573221Y533719D2*
X569871Y537069D1*
X277207Y535523D2*
X317321Y589093D1*
X277207Y518902D2*
X277207Y535523D1*
X263166Y443065D2*
X277207Y518902D1*
X261219Y438364D2*
X263166Y443065D1*
X250187Y427332D2*
X261219Y438364D1*
X201366Y395049D2*
X250187Y427332D1*
X200271Y394595D2*
X201366Y395049D1*
X188513Y394595D2*
X200271Y394595D1*
X142549Y396587D2*
X188513Y394595D1*
X92893Y403420D2*
X142549Y396587D1*
X82145Y403420D2*
X92893Y403420D1*
X81984Y403353D2*
X82145Y403420D1*
X62119Y390260D2*
X81984Y403353D1*
X135271Y337430D2*
X87519Y314060D1*
X55402Y243951D2*
X22906Y259325D1*
X56497Y243497D2*
X55402Y243951D1*
X68255Y243497D2*
X56497Y243497D1*
X69350Y243951D2*
X68255Y243497D1*
X79798Y252151D2*
X69350Y243951D1*
X140897Y351860D2*
X147971Y350130D1*
X129645Y351860D2*
X140897Y351860D1*
X129016Y351600D2*
X129645Y351860D1*
X82258Y326760D2*
X129016Y351600D1*
X74819Y319321D2*
X82258Y326760D1*
X74819Y308799D2*
X74819Y319321D1*
X79798Y252151D2*
X74819Y308799D1*
X91901Y245236D2*
X79798Y252151D1*
X92996Y244782D2*
X91901Y245236D1*
X139938Y226455D2*
X92996Y244782D1*
X151696Y226455D2*
X139938Y226455D1*
X152791Y226909D2*
X151696Y226455D1*
X161063Y235181D2*
X152791Y226909D1*
X161517Y236276D2*
X161063Y235181D1*
X161517Y248034D2*
X161517Y236276D1*
X161063Y249129D2*
X161517Y248034D1*
X133896Y286484D2*
X161063Y249129D1*
X62376Y310710D2*
X62119Y314060D1*
X62376Y307710D2*
X62376Y310710D1*
X62376Y259197D2*
X62376Y307710D1*
X91901Y174128D2*
X62376Y157597D1*
X149672Y199481D2*
X91901Y174128D1*
X22906Y157725D2*
X21639Y131494D1*
X62376Y157597D2*
X22906Y157725D1*
X143568Y130993D2*
X123239Y131494D1*
X145817Y242155D2*
X98875Y260482D1*
X119726Y292739D2*
X98875Y260482D1*
X127641Y300654D2*
X119726Y292739D1*
X128270Y300914D2*
X127641Y300654D1*
X139522Y300914D2*
X128270Y300914D1*
X146596Y299184D2*
X139522Y300914D1*
X98875Y158882D2*
X143191Y164916D1*
X245168Y130993D2*
X272982Y131858D1*
X290224Y219211D2*
X286874Y222561D1*
X290224Y216211D2*
X290224Y219211D1*
X290224Y214968D2*
X290224Y216211D1*
X318535Y144789D2*
X290224Y214968D1*
X244791Y164916D2*
X318535Y144789D1*
X374582Y131858D2*
X318535Y144789D1*
X159296Y286484D2*
X210305Y233108D1*
X247417Y242155D2*
X286874Y171761D1*
X210305Y233108D2*
X247417Y242155D1*
X161026Y293558D2*
X159296Y286484D1*
X161026Y304810D2*
X161026Y293558D1*
X160671Y337430D2*
X161026Y304810D1*
X200472Y199481D2*
X210305Y233108D1*
G54D16*
X267057Y523106D3*
X287357Y531319D3*
G54D17*
X148175Y436417D3*
X135475Y423717D3*
X148175Y411017D3*
X160671Y337430D3*
X147971Y350130D3*
X135271Y337430D3*
X159296Y286484D3*
X146596Y299184D3*
X133896Y286484D3*
X215721Y741255D3*
X241121Y741255D3*
X266521Y741255D3*
X291921Y741255D3*
X317321Y741255D3*
X342721Y741255D3*
X368121Y741255D3*
X393521Y741255D3*
X418921Y741255D3*
X444321Y741255D3*
X469721Y741255D3*
X495121Y741255D3*
X520521Y741255D3*
X545921Y741255D3*
X571321Y741255D3*
X571321Y589093D3*
X545921Y589093D3*
X520521Y589093D3*
X495121Y589093D3*
X469721Y589093D3*
X444321Y589093D3*
X418921Y589093D3*
X393521Y589093D3*
X368121Y589093D3*
X342721Y589093D3*
X317321Y589093D3*
X291921Y589093D3*
X266521Y589093D3*
X241121Y589093D3*
G54D18*
X43444Y434567D3*
X43444Y470567D3*
X62119Y390260D3*
X87519Y390260D3*
X87519Y314060D3*
X363074Y171761D3*
X363074Y222561D3*
X286874Y171761D3*
X531730Y326790D3*
X531730Y276790D3*
X532436Y213351D3*
X532436Y163351D3*
X573221Y457519D3*
X547821Y457519D3*
X522421Y457519D3*
X522421Y533719D3*
X547821Y533719D3*
X158260Y753466D3*
X122260Y753466D3*
G54D19*
X35438Y513829D3*
X60838Y513829D3*
X23233Y664775D3*
X23233Y563175D3*
X65824Y562240D3*
X65824Y663840D3*
X22906Y259325D3*
X22906Y157725D3*
X145817Y242155D3*
X247417Y242155D3*
X98875Y158882D3*
X98875Y260482D3*
X143191Y164916D3*
X244791Y164916D3*
X143568Y130993D3*
X245168Y130993D3*
X374582Y131858D3*
X272982Y131858D3*
X103309Y531823D3*
X103309Y430223D3*
X144624Y665961D3*
X144624Y564361D3*
X237656Y450895D3*
X339256Y450895D3*
X200472Y199481D3*
X149672Y199481D3*
X62376Y259197D3*
X62376Y157597D3*
X21639Y131494D3*
X123239Y131494D3*
X120351Y807439D3*
X120351Y909039D3*
X395744Y256749D3*
X446544Y256749D3*
X394398Y293033D3*
X394398Y394633D3*
X479778Y433129D3*
X581378Y433129D3*
X194392Y410295D3*
X194392Y435695D3*
X105376Y664461D3*
X105376Y562861D3*
G54D20*
X33795Y824739D3*
X482831Y254214D3*
X482831Y406614D3*
X30928Y727923D3*
G54D21*
X75695Y723539D3*
X75695Y825139D3*
G54D22*
X446544Y256749D2*
X482831Y254214D1*
X526405Y377438D2*
X531730Y326790D1*
X394398Y293033D2*
X531730Y326790D1*
X395744Y256749D2*
X394398Y293033D1*
X545881Y403085D2*
X547151Y401507D1*
X534433Y417792D2*
X545881Y403085D1*
X514113Y417792D2*
X534433Y417792D1*
X547405Y161480D2*
X532436Y163351D1*
X567506Y200788D2*
X547405Y161480D1*
X552537Y373980D2*
X567506Y200788D1*
X486496Y414352D2*
X482831Y406614D1*
X515353Y416570D2*
X486496Y414352D1*
X531730Y276790D2*
X532436Y213351D1*
G54D23*
X526405Y379923D2*
X526405Y377438D1*
X530071Y384702D2*
X526405Y379923D1*
X525911Y388862D2*
X530071Y384702D1*
X515353Y416570D2*
X514113Y417792D1*
X547151Y393022D2*
X551311Y388862D1*
X547151Y399022D2*
X547151Y393022D1*
X547151Y401507D2*
X547151Y399022D1*
X363074Y171761D2*
X532436Y163351D1*
X548596Y384702D2*
X552537Y373980D1*
X551311Y388862D2*
X548596Y384702D1*
X479778Y433129D2*
X482831Y406614D1*
X363074Y222561D2*
X532436Y213351D1*
M02*
