%FSLAX44Y44*%
%OFA0.0000B0.0000*%
%SFA1B1*%
%MOMM*%
%AMFRECTNOHOLE10*
21,1,2.0320,2.0320,0.0000,0.0000,0*
%
%AMFRECTNOHOLE11*
21,1,1.2700,1.2700,0.0000,0.0000,0*
%
%AMFRECTNOHOLE12*
21,1,1.9050,1.9050,0.0000,0.0000,0*
%
%ADD10FRECTNOHOLE10*%
%ADD11FRECTNOHOLE11*%
%ADD12FRECTNOHOLE12*%
%ADD13C,0.0000X0.0000*%
%ADD14C,0.2032X0.0000*%
%ADD15C,0.6000X0.0000*%
%ADD16C,0.7620X0.0000*%
%ADD17C,1.5240X0.0000*%
%ADD18C,1.2700X0.0000*%
%ADD19C,1.7780X0.0000*%
%ADD20C,2.0320X0.0000*%
%ADD21C,2.2860X0.0000*%
%LNTOP*%
%LPD*%
G54D10*
X576711Y388862D3*
X551311Y388862D3*
X525911Y388862D3*
X215721Y589093D3*
G54D11*
X62119Y314060D3*
X286874Y222561D3*
X573221Y533719D3*
G54D12*
X40167Y878729D3*
X63027Y878729D3*
X85887Y878729D3*
G54D14*
X-1000Y999000D2*
X-1000Y100000D1*
X602000Y999000D2*
X-1000Y999000D1*
X602000Y100000D2*
X602000Y999000D1*
X-1000Y100000D2*
X602000Y100000D1*
G54D15*
X287357Y531319D2*
X267057Y523106D1*
G54D16*
X267057Y523106D3*
X287357Y531319D3*
G54D17*
X148175Y436417D3*
X135475Y423717D3*
X148175Y411017D3*
X160671Y337430D3*
X147971Y350130D3*
X135271Y337430D3*
X159296Y286484D3*
X146596Y299184D3*
X133896Y286484D3*
X215721Y741255D3*
X241121Y741255D3*
X266521Y741255D3*
X291921Y741255D3*
X317321Y741255D3*
X342721Y741255D3*
X368121Y741255D3*
X393521Y741255D3*
X418921Y741255D3*
X444321Y741255D3*
X469721Y741255D3*
X495121Y741255D3*
X520521Y741255D3*
X545921Y741255D3*
X571321Y741255D3*
X571321Y589093D3*
X545921Y589093D3*
X520521Y589093D3*
X495121Y589093D3*
X469721Y589093D3*
X444321Y589093D3*
X418921Y589093D3*
X393521Y589093D3*
X368121Y589093D3*
X342721Y589093D3*
X317321Y589093D3*
X291921Y589093D3*
X266521Y589093D3*
X241121Y589093D3*
G54D18*
X43444Y434567D3*
X43444Y470567D3*
X62119Y390260D3*
X87519Y390260D3*
X87519Y314060D3*
X363074Y171761D3*
X363074Y222561D3*
X286874Y171761D3*
X531730Y326790D3*
X531730Y276790D3*
X532436Y213351D3*
X532436Y163351D3*
X573221Y457519D3*
X547821Y457519D3*
X522421Y457519D3*
X522421Y533719D3*
X547821Y533719D3*
X158260Y753466D3*
X122260Y753466D3*
G54D19*
X35438Y513829D3*
X60838Y513829D3*
X23233Y664775D3*
X23233Y563175D3*
X65824Y562240D3*
X65824Y663840D3*
X22906Y259325D3*
X22906Y157725D3*
X145817Y242155D3*
X247417Y242155D3*
X98875Y158882D3*
X98875Y260482D3*
X143191Y164916D3*
X244791Y164916D3*
X143568Y130993D3*
X245168Y130993D3*
X374582Y131858D3*
X272982Y131858D3*
X103309Y531823D3*
X103309Y430223D3*
X144624Y665961D3*
X144624Y564361D3*
X237656Y450895D3*
X339256Y450895D3*
X200472Y199481D3*
X149672Y199481D3*
X62376Y259197D3*
X62376Y157597D3*
X21639Y131494D3*
X123239Y131494D3*
X120351Y807439D3*
X120351Y909039D3*
X395744Y256749D3*
X446544Y256749D3*
X394398Y293033D3*
X394398Y394633D3*
X479778Y433129D3*
X581378Y433129D3*
X194392Y410295D3*
X194392Y435695D3*
X105376Y664461D3*
X105376Y562861D3*
G54D20*
X33795Y824739D3*
X482831Y254214D3*
X482831Y406614D3*
X30928Y727923D3*
G54D21*
X75695Y723539D3*
X75695Y825139D3*
M02*
