  0
SECTION
  2
HEADER
  9
$ACADVER
  1
AC1009
  9
$INSUNITS
 70
     1
  0
ENDSEC
  0
SECTION
  2
TABLES
  0
TABLE
  2
LAYER
 70
     8
  0
LAYER
  2
0
 62
     7
 70
0
  6
CONTINUOUS
  0
LAYER
  2
1
 62
     1
 70
0
  6
CONTINUOUS
  0
LAYER
  2
2
 62
     2
 70
0
  6
CONTINUOUS
  0
LAYER
  2
3
 62
     3
 70
0
  6
CONTINUOUS
  0
LAYER
  2
4
 62
     4
 70
0
  6
CONTINUOUS
  0
LAYER
  2
5
 62
     5
 70
0
  6
CONTINUOUS
  0
LAYER
  2
6
 62
     6
 70
0
  6
CONTINUOUS
  0
LAYER
  2
7
 62
     7
 70
0
  6
CONTINUOUS
  0
ENDTAB
  0
TABLE
  2
STYLE
 70
     1
  0
STYLE
 70
     0
  2
STANDARD
  3
TXT
 40
0.00
 41
1.00
 42
1.00
 50
0.00
 71
     0
  0
ENDTAB
  0
ENDSEC
  0
SECTION
  2
BLOCKS
  0
BLOCK
  8
0
  2
EPAD
 70
0
 10
0.0
 20
0.0
  0
POLYLINE
  8
0
 66
1
 70
1
 40
0.5
 41
0.5
  0
VERTEX
  8
0
 10
-0.25
 20
0.0
 42
1.0
  0
VERTEX
  8
0
 10
0.25
 20
0.0
 42
1.0
  0
SEQEND
  8
0
  0
ENDBLK
  8
0
  0
BLOCK
  8
0
  2
RPAD
 70
0
 10
0.0
 20
0.0
  0
TRACE
  8
0
 10
-0.5
 20
-0.5
 11
-0.5
 21
0.5
 12
0.5
 22
-0.5
 13
0.5
 23
0.5
  0
ENDBLK
  8
0
  0
ENDSEC
0
SECTION
2
ENTITIES
0
INSERT
8
0
2
EPAD
10
0.246063
20
-0.344488
41
0.070000
42
0.070000
0
INSERT
8
0
2
EPAD
10
0.246063
20
-0.344488
41
0.070000
42
0.070000
0
INSERT
8
0
2
EPAD
10
0.246063
20
-0.444488
41
0.070000
42
0.070000
0
INSERT
8
0
2
EPAD
10
0.246063
20
-0.444488
41
0.070000
42
0.070000
0
INSERT
8
0
2
EPAD
10
0.049213
20
-0.639764
41
0.080000
42
0.080000
0
INSERT
8
0
2
EPAD
10
0.049213
20
-0.239764
41
0.080000
42
0.080000
0
INSERT
8
0
2
EPAD
10
-0.049213
20
-0.646063
41
0.080000
42
0.080000
0
INSERT
8
0
2
EPAD
10
-0.049213
20
-0.246063
41
0.080000
42
0.080000
0
INSERT
8
0
2
EPAD
10
-0.049213
20
-0.055512
41
0.080000
42
0.080000
0
INSERT
8
0
2
EPAD
10
-0.049213
20
0.344488
41
0.080000
42
0.080000
0
INSERT
8
0
2
EPAD
10
-0.246063
20
-0.055512
41
0.080000
42
0.080000
0
INSERT
8
0
2
EPAD
10
-0.246063
20
0.344488
41
0.080000
42
0.080000
0
INSERT
8
0
2
EPAD
10
-0.442913
20
-0.049213
41
0.080000
42
0.080000
0
INSERT
8
0
2
EPAD
10
-0.442913
20
0.350787
41
0.080000
42
0.080000
0
INSERT
8
0
2
EPAD
10
-0.344488
20
-0.147638
41
0.080000
42
0.080000
0
INSERT
8
0
2
EPAD
10
0.055512
20
-0.147638
41
0.080000
42
0.080000
0
INSERT
8
0
2
EPAD
10
-0.442913
20
-0.294488
41
0.070000
42
0.070000
0
INSERT
8
0
2
EPAD
10
-0.392913
20
-0.344488
41
0.070000
42
0.070000
0
INSERT
8
0
2
EPAD
10
-0.442913
20
-0.394488
41
0.070000
42
0.070000
0
INSERT
8
0
2
EPAD
10
-0.147638
20
-0.246063
41
0.080000
42
0.080000
0
INSERT
8
0
2
EPAD
10
-0.147638
20
-0.346063
41
0.080000
42
0.080000
0
INSERT
8
0
2
EPAD
10
-0.639764
20
-0.247638
41
0.080000
42
0.080000
0
INSERT
8
0
2
EPAD
10
-0.639764
20
-0.147638
41
0.080000
42
0.080000
0
INSERT
8
0
2
EPAD
10
-0.639764
20
0.049213
41
0.090000
42
0.090000
0
INSERT
8
0
2
EPAD
10
0.738189
20
1.320866
41
0.070000
42
0.070000
0
INSERT
8
0
2
EPAD
10
0.738189
20
1.320866
41
0.070000
42
0.070000
0
INSERT
8
0
2
EPAD
10
0.738189
20
1.420866
41
0.070000
42
0.070000
0
INSERT
8
0
2
EPAD
10
0.738189
20
1.420866
41
0.070000
42
0.070000
0
INSERT
8
0
2
EPAD
10
0.738189
20
1.520866
41
0.070000
42
0.070000
0
INSERT
8
0
2
EPAD
10
0.738189
20
1.520866
41
0.070000
42
0.070000
0
INSERT
8
0
2
EPAD
10
0.738189
20
1.620866
41
0.070000
42
0.070000
0
INSERT
8
0
2
EPAD
10
0.738189
20
1.620866
41
0.070000
42
0.070000
0
INSERT
8
0
2
EPAD
10
0.738189
20
1.720866
41
0.070000
42
0.070000
0
INSERT
8
0
2
EPAD
10
0.738189
20
1.720866
41
0.070000
42
0.070000
0
INSERT
8
0
2
EPAD
10
0.738189
20
1.820866
41
0.070000
42
0.070000
0
INSERT
8
0
2
EPAD
10
0.738189
20
1.820866
41
0.070000
42
0.070000
0
INSERT
8
0
2
EPAD
10
-0.147638
20
0.925591
41
0.110000
42
0.110000
0
INSERT
8
0
2
EPAD
10
0.151362
20
0.925591
41
0.110000
42
0.110000
0
INSERT
8
0
2
EPAD
10
-0.147638
20
1.725591
41
0.110000
42
0.110000
0
INSERT
8
0
2
EPAD
10
0.152362
20
1.725591
41
0.110000
42
0.110000
0
INSERT
8
0
2
EPAD
10
-0.147638
20
1.525591
41
0.110000
42
0.110000
0
INSERT
8
0
2
EPAD
10
0.152362
20
1.525591
41
0.110000
42
0.110000
0
INSERT
8
0
2
EPAD
10
-0.147638
20
1.925591
41
0.110000
42
0.110000
0
INSERT
8
0
2
EPAD
10
0.152362
20
1.925591
41
0.110000
42
0.110000
0
POLYLINE
8
0
66
1
70
1
40
0
41
0
0
VERTEX
8
0
10
0.302913
20
2.062717
0
VERTEX
8
0
10
0.382913
20
2.062717
0
VERTEX
8
0
10
0.383936
20
2.062617
0
VERTEX
8
0
10
0.384881
20
2.062331
0
VERTEX
8
0
10
0.385731
20
2.061876
0
VERTEX
8
0
10
0.386468
20
2.061271
0
VERTEX
8
0
10
0.387073
20
2.060534
0
VERTEX
8
0
10
0.387528
20
2.059684
0
VERTEX
8
0
10
0.387814
20
2.058739
0
VERTEX
8
0
10
0.387913
20
2.057717
0
VERTEX
8
0
10
0.387913
20
1.977717
0
VERTEX
8
0
10
0.387814
20
1.976694
0
VERTEX
8
0
10
0.387528
20
1.975749
0
VERTEX
8
0
10
0.387073
20
1.974899
0
VERTEX
8
0
10
0.386468
20
1.974162
0
VERTEX
8
0
10
0.385731
20
1.973557
0
VERTEX
8
0
10
0.384881
20
1.973102
0
VERTEX
8
0
10
0.383936
20
1.972816
0
VERTEX
8
0
10
0.382913
20
1.972717
0
VERTEX
8
0
10
0.302913
20
1.972717
0
VERTEX
8
0
10
0.301891
20
1.972816
0
VERTEX
8
0
10
0.300946
20
1.973102
0
VERTEX
8
0
10
0.300095
20
1.973557
0
VERTEX
8
0
10
0.299359
20
1.974162
0
VERTEX
8
0
10
0.298754
20
1.974899
0
VERTEX
8
0
10
0.298299
20
1.975749
0
VERTEX
8
0
10
0.298013
20
1.976694
0
VERTEX
8
0
10
0.297913
20
1.977717
0
VERTEX
8
0
10
0.297913
20
2.057717
0
VERTEX
8
0
10
0.298013
20
2.058739
0
VERTEX
8
0
10
0.298299
20
2.059684
0
VERTEX
8
0
10
0.298754
20
2.060534
0
VERTEX
8
0
10
0.299359
20
2.061271
0
VERTEX
8
0
10
0.300095
20
2.061876
0
VERTEX
8
0
10
0.300946
20
2.062331
0
VERTEX
8
0
10
0.301891
20
2.062617
0
VERTEX
8
0
10
0.302913
20
2.062717
0
SEQEND
8
0
0
POLYLINE
8
0
66
1
70
1
40
0
41
0
0
VERTEX
8
0
10
0.402913
20
2.062717
0
VERTEX
8
0
10
0.482913
20
2.062717
0
VERTEX
8
0
10
0.483936
20
2.062617
0
VERTEX
8
0
10
0.484881
20
2.062331
0
VERTEX
8
0
10
0.485731
20
2.061876
0
VERTEX
8
0
10
0.486468
20
2.061271
0
VERTEX
8
0
10
0.487073
20
2.060534
0
VERTEX
8
0
10
0.487528
20
2.059684
0
VERTEX
8
0
10
0.487814
20
2.058739
0
VERTEX
8
0
10
0.487913
20
2.057717
0
VERTEX
8
0
10
0.487913
20
1.977717
0
VERTEX
8
0
10
0.487814
20
1.976694
0
VERTEX
8
0
10
0.487528
20
1.975749
0
VERTEX
8
0
10
0.487073
20
1.974899
0
VERTEX
8
0
10
0.486468
20
1.974162
0
VERTEX
8
0
10
0.485731
20
1.973557
0
VERTEX
8
0
10
0.484881
20
1.973102
0
VERTEX
8
0
10
0.483936
20
1.972816
0
VERTEX
8
0
10
0.482913
20
1.972717
0
VERTEX
8
0
10
0.402913
20
1.972717
0
VERTEX
8
0
10
0.401891
20
1.972816
0
VERTEX
8
0
10
0.400946
20
1.973102
0
VERTEX
8
0
10
0.400095
20
1.973557
0
VERTEX
8
0
10
0.399359
20
1.974162
0
VERTEX
8
0
10
0.398754
20
1.974899
0
VERTEX
8
0
10
0.398299
20
1.975749
0
VERTEX
8
0
10
0.398013
20
1.976694
0
VERTEX
8
0
10
0.397913
20
1.977717
0
VERTEX
8
0
10
0.397913
20
2.057717
0
VERTEX
8
0
10
0.398013
20
2.058739
0
VERTEX
8
0
10
0.398299
20
2.059684
0
VERTEX
8
0
10
0.398754
20
2.060534
0
VERTEX
8
0
10
0.399359
20
2.061271
0
VERTEX
8
0
10
0.400095
20
2.061876
0
VERTEX
8
0
10
0.400946
20
2.062331
0
VERTEX
8
0
10
0.401891
20
2.062617
0
VERTEX
8
0
10
0.402913
20
2.062717
0
SEQEND
8
0
0
POLYLINE
8
0
66
1
70
1
40
0
41
0
0
VERTEX
8
0
10
0.502913
20
2.062717
0
VERTEX
8
0
10
0.582913
20
2.062717
0
VERTEX
8
0
10
0.583936
20
2.062617
0
VERTEX
8
0
10
0.584881
20
2.062331
0
VERTEX
8
0
10
0.585731
20
2.061876
0
VERTEX
8
0
10
0.586468
20
2.061271
0
VERTEX
8
0
10
0.587073
20
2.060534
0
VERTEX
8
0
10
0.587528
20
2.059684
0
VERTEX
8
0
10
0.587814
20
2.058739
0
VERTEX
8
0
10
0.587913
20
2.057717
0
VERTEX
8
0
10
0.587913
20
1.977717
0
VERTEX
8
0
10
0.587814
20
1.976694
0
VERTEX
8
0
10
0.587528
20
1.975749
0
VERTEX
8
0
10
0.587073
20
1.974899
0
VERTEX
8
0
10
0.586468
20
1.974162
0
VERTEX
8
0
10
0.585731
20
1.973557
0
VERTEX
8
0
10
0.584881
20
1.973102
0
VERTEX
8
0
10
0.583936
20
1.972816
0
VERTEX
8
0
10
0.582913
20
1.972717
0
VERTEX
8
0
10
0.502913
20
1.972717
0
VERTEX
8
0
10
0.501891
20
1.972816
0
VERTEX
8
0
10
0.500946
20
1.973102
0
VERTEX
8
0
10
0.500095
20
1.973557
0
VERTEX
8
0
10
0.499359
20
1.974162
0
VERTEX
8
0
10
0.498754
20
1.974899
0
VERTEX
8
0
10
0.498299
20
1.975749
0
VERTEX
8
0
10
0.498013
20
1.976694
0
VERTEX
8
0
10
0.497913
20
1.977717
0
VERTEX
8
0
10
0.497913
20
2.057717
0
VERTEX
8
0
10
0.498013
20
2.058739
0
VERTEX
8
0
10
0.498299
20
2.059684
0
VERTEX
8
0
10
0.498754
20
2.060534
0
VERTEX
8
0
10
0.499359
20
2.061271
0
VERTEX
8
0
10
0.500095
20
2.061876
0
VERTEX
8
0
10
0.500946
20
2.062331
0
VERTEX
8
0
10
0.501891
20
2.062617
0
VERTEX
8
0
10
0.502913
20
2.062717
0
SEQEND
8
0
0
INSERT
8
0
2
EPAD
10
0.935039
20
0.935039
41
0.090000
42
0.090000
0
INSERT
8
0
2
EPAD
10
0.335039
20
0.935039
41
0.090000
42
0.090000
0
INSERT
8
0
2
EPAD
10
0.344488
20
1.325591
41
0.080000
42
0.080000
0
INSERT
8
0
2
EPAD
10
0.344488
20
1.525591
41
0.080000
42
0.080000
0
POLYLINE
8
0
66
1
70
1
40
0
41
0
0
VERTEX
8
0
10
-0.614488
20
1.061614
0
VERTEX
8
0
10
-0.614488
20
1.011614
0
VERTEX
8
0
10
-0.614588
20
1.010592
0
VERTEX
8
0
10
-0.614874
20
1.009646
0
VERTEX
8
0
10
-0.615329
20
1.008796
0
VERTEX
8
0
10
-0.615933
20
1.008059
0
VERTEX
8
0
10
-0.616670
20
1.007455
0
VERTEX
8
0
10
-0.617520
20
1.007000
0
VERTEX
8
0
10
-0.618466
20
1.006714
0
VERTEX
8
0
10
-0.619488
20
1.006614
0
VERTEX
8
0
10
-0.669488
20
1.006614
0
VERTEX
8
0
10
-0.670511
20
1.006714
0
VERTEX
8
0
10
-0.671456
20
1.007000
0
VERTEX
8
0
10
-0.672306
20
1.007455
0
VERTEX
8
0
10
-0.673043
20
1.008059
0
VERTEX
8
0
10
-0.673648
20
1.008796
0
VERTEX
8
0
10
-0.674102
20
1.009646
0
VERTEX
8
0
10
-0.674389
20
1.010592
0
VERTEX
8
0
10
-0.674488
20
1.011614
0
VERTEX
8
0
10
-0.674488
20
1.061614
0
VERTEX
8
0
10
-0.674389
20
1.062637
0
VERTEX
8
0
10
-0.674102
20
1.063582
0
VERTEX
8
0
10
-0.673648
20
1.064432
0
VERTEX
8
0
10
-0.673043
20
1.065169
0
VERTEX
8
0
10
-0.672306
20
1.065774
0
VERTEX
8
0
10
-0.671456
20
1.066228
0
VERTEX
8
0
10
-0.670511
20
1.066515
0
VERTEX
8
0
10
-0.669488
20
1.066614
0
VERTEX
8
0
10
-0.619488
20
1.066614
0
VERTEX
8
0
10
-0.618466
20
1.066515
0
VERTEX
8
0
10
-0.617520
20
1.066228
0
VERTEX
8
0
10
-0.616670
20
1.065774
0
VERTEX
8
0
10
-0.615933
20
1.065169
0
VERTEX
8
0
10
-0.615329
20
1.064432
0
VERTEX
8
0
10
-0.614874
20
1.063582
0
VERTEX
8
0
10
-0.614588
20
1.062637
0
VERTEX
8
0
10
-0.614488
20
1.061614
0
SEQEND
8
0
0
INSERT
8
0
2
EPAD
10
-0.644488
20
0.936614
41
0.060000
42
0.060000
0
INSERT
8
0
2
EPAD
10
-0.644488
20
0.836614
41
0.060000
42
0.060000
0
INSERT
8
0
2
EPAD
10
-0.344488
20
0.836614
41
0.060000
42
0.060000
0
INSERT
8
0
2
EPAD
10
-0.344488
20
0.936614
41
0.060000
42
0.060000
0
INSERT
8
0
2
EPAD
10
-0.344488
20
1.036614
41
0.060000
42
0.060000
0
INSERT
8
0
2
EPAD
10
-0.055512
20
2.214567
41
0.080000
42
0.080000
0
INSERT
8
0
2
EPAD
10
0.344488
20
2.214567
41
0.080000
42
0.080000
0
INSERT
8
0
2
EPAD
10
-0.442913
20
2.017717
41
0.080000
42
0.080000
0
INSERT
8
0
2
EPAD
10
-0.442913
20
1.617717
41
0.080000
42
0.080000
0
POLYLINE
8
0
66
1
70
1
40
0
41
0
0
VERTEX
8
0
10
-0.320787
20
-1.106890
0
VERTEX
8
0
10
-0.320787
20
-1.156890
0
VERTEX
8
0
10
-0.320887
20
-1.157912
0
VERTEX
8
0
10
-0.321173
20
-1.158857
0
VERTEX
8
0
10
-0.321628
20
-1.159708
0
VERTEX
8
0
10
-0.322233
20
-1.160444
0
VERTEX
8
0
10
-0.322970
20
-1.161049
0
VERTEX
8
0
10
-0.323820
20
-1.161504
0
VERTEX
8
0
10
-0.324765
20
-1.161790
0
VERTEX
8
0
10
-0.325787
20
-1.161890
0
VERTEX
8
0
10
-0.375787
20
-1.161890
0
VERTEX
8
0
10
-0.376810
20
-1.161790
0
VERTEX
8
0
10
-0.377755
20
-1.161504
0
VERTEX
8
0
10
-0.378605
20
-1.161049
0
VERTEX
8
0
10
-0.379342
20
-1.160444
0
VERTEX
8
0
10
-0.379947
20
-1.159708
0
VERTEX
8
0
10
-0.380402
20
-1.158857
0
VERTEX
8
0
10
-0.380688
20
-1.157912
0
VERTEX
8
0
10
-0.380787
20
-1.156890
0
VERTEX
8
0
10
-0.380787
20
-1.106890
0
VERTEX
8
0
10
-0.380688
20
-1.105867
0
VERTEX
8
0
10
-0.380402
20
-1.104922
0
VERTEX
8
0
10
-0.379947
20
-1.104072
0
VERTEX
8
0
10
-0.379342
20
-1.103335
0
VERTEX
8
0
10
-0.378605
20
-1.102730
0
VERTEX
8
0
10
-0.377755
20
-1.102276
0
VERTEX
8
0
10
-0.376810
20
-1.101989
0
VERTEX
8
0
10
-0.375787
20
-1.101890
0
VERTEX
8
0
10
-0.325787
20
-1.101890
0
VERTEX
8
0
10
-0.324765
20
-1.101989
0
VERTEX
8
0
10
-0.323820
20
-1.102276
0
VERTEX
8
0
10
-0.322970
20
-1.102730
0
VERTEX
8
0
10
-0.322233
20
-1.103335
0
VERTEX
8
0
10
-0.321628
20
-1.104072
0
VERTEX
8
0
10
-0.321173
20
-1.104922
0
VERTEX
8
0
10
-0.320887
20
-1.105867
0
VERTEX
8
0
10
-0.320787
20
-1.106890
0
SEQEND
8
0
0
INSERT
8
0
2
EPAD
10
-0.350787
20
-1.331890
41
0.060000
42
0.060000
0
INSERT
8
0
2
EPAD
10
-0.050787
20
-1.131890
41
0.060000
42
0.060000
0
INSERT
8
0
2
EPAD
10
-0.050787
20
-1.331890
41
0.060000
42
0.060000
0
INSERT
8
0
2
EPAD
10
-0.646063
20
-1.531890
41
0.080000
42
0.080000
0
INSERT
8
0
2
EPAD
10
-0.646063
20
-1.131890
41
0.080000
42
0.080000
0
INSERT
8
0
2
EPAD
10
-0.744488
20
-0.836614
41
0.080000
42
0.080000
0
INSERT
8
0
2
EPAD
10
-0.344488
20
-0.836614
41
0.080000
42
0.080000
0
INSERT
8
0
2
EPAD
10
-0.153937
20
-0.836614
41
0.080000
42
0.080000
0
INSERT
8
0
2
EPAD
10
0.246063
20
-0.836614
41
0.080000
42
0.080000
0
INSERT
8
0
2
EPAD
10
-0.646063
20
-1.624016
41
0.080000
42
0.080000
0
INSERT
8
0
2
EPAD
10
-0.646063
20
-2.024016
41
0.080000
42
0.080000
0
INSERT
8
0
2
EPAD
10
-0.350787
20
-1.525591
41
0.080000
42
0.080000
0
INSERT
8
0
2
EPAD
10
0.049213
20
-1.525591
41
0.080000
42
0.080000
0
INSERT
8
0
2
EPAD
10
-0.103937
20
-1.770866
41
0.070000
42
0.070000
0
INSERT
8
0
2
EPAD
10
-0.153937
20
-1.820866
41
0.070000
42
0.070000
0
INSERT
8
0
2
EPAD
10
-0.203937
20
-1.770866
41
0.070000
42
0.070000
0
INSERT
8
0
2
EPAD
10
-0.103937
20
-2.017717
41
0.070000
42
0.070000
0
INSERT
8
0
2
EPAD
10
-0.153937
20
-2.067717
41
0.070000
42
0.070000
0
INSERT
8
0
2
EPAD
10
-0.203937
20
-2.017717
41
0.070000
42
0.070000
0
INSERT
8
0
2
EPAD
10
-0.652362
20
-2.214567
41
0.080000
42
0.080000
0
INSERT
8
0
2
EPAD
10
-0.252362
20
-2.214567
41
0.080000
42
0.080000
0
INSERT
8
0
2
EPAD
10
-0.061811
20
-2.214567
41
0.080000
42
0.080000
0
INSERT
8
0
2
EPAD
10
0.338189
20
-2.214567
41
0.080000
42
0.080000
0
INSERT
8
0
2
EPAD
10
0.141339
20
-2.116142
41
0.080000
42
0.080000
0
INSERT
8
0
2
EPAD
10
0.141339
20
-1.716142
41
0.080000
42
0.080000
0
POLYLINE
8
0
66
1
70
1
40
0
41
0
0
VERTEX
8
0
10
0.265039
20
-1.892717
0
VERTEX
8
0
10
0.265039
20
-1.942717
0
VERTEX
8
0
10
0.264940
20
-1.943739
0
VERTEX
8
0
10
0.264654
20
-1.944684
0
VERTEX
8
0
10
0.264199
20
-1.945535
0
VERTEX
8
0
10
0.263594
20
-1.946271
0
VERTEX
8
0
10
0.262857
20
-1.946876
0
VERTEX
8
0
10
0.262007
20
-1.947331
0
VERTEX
8
0
10
0.261062
20
-1.947617
0
VERTEX
8
0
10
0.260039
20
-1.947717
0
VERTEX
8
0
10
0.210039
20
-1.947717
0
VERTEX
8
0
10
0.209017
20
-1.947617
0
VERTEX
8
0
10
0.208072
20
-1.947331
0
VERTEX
8
0
10
0.207222
20
-1.946876
0
VERTEX
8
0
10
0.206485
20
-1.946271
0
VERTEX
8
0
10
0.205880
20
-1.945535
0
VERTEX
8
0
10
0.205425
20
-1.944684
0
VERTEX
8
0
10
0.205139
20
-1.943739
0
VERTEX
8
0
10
0.205039
20
-1.942717
0
VERTEX
8
0
10
0.205039
20
-1.892717
0
VERTEX
8
0
10
0.205139
20
-1.891694
0
VERTEX
8
0
10
0.205425
20
-1.890749
0
VERTEX
8
0
10
0.205880
20
-1.889898
0
VERTEX
8
0
10
0.206485
20
-1.889162
0
VERTEX
8
0
10
0.207222
20
-1.888557
0
VERTEX
8
0
10
0.208072
20
-1.888102
0
VERTEX
8
0
10
0.209017
20
-1.887816
0
VERTEX
8
0
10
0.210039
20
-1.887717
0
VERTEX
8
0
10
0.260039
20
-1.887717
0
VERTEX
8
0
10
0.261062
20
-1.887816
0
VERTEX
8
0
10
0.262007
20
-1.888102
0
VERTEX
8
0
10
0.262857
20
-1.888557
0
VERTEX
8
0
10
0.263594
20
-1.889162
0
VERTEX
8
0
10
0.264199
20
-1.889898
0
VERTEX
8
0
10
0.264654
20
-1.890749
0
VERTEX
8
0
10
0.264940
20
-1.891694
0
VERTEX
8
0
10
0.265039
20
-1.892717
0
SEQEND
8
0
0
INSERT
8
0
2
EPAD
10
0.235039
20
-2.017717
41
0.060000
42
0.060000
0
INSERT
8
0
2
EPAD
10
0.535039
20
-2.017717
41
0.060000
42
0.060000
0
INSERT
8
0
2
EPAD
10
0.535039
20
-1.917717
41
0.060000
42
0.060000
0
POLYLINE
8
0
66
1
70
1
40
0
41
0
0
VERTEX
8
0
10
-0.682264
20
0.323839
0
VERTEX
8
0
10
-0.682264
20
0.398839
0
VERTEX
8
0
10
-0.682164
20
0.399861
0
VERTEX
8
0
10
-0.681878
20
0.400806
0
VERTEX
8
0
10
-0.681423
20
0.401657
0
VERTEX
8
0
10
-0.680819
20
0.402393
0
VERTEX
8
0
10
-0.680081
20
0.402998
0
VERTEX
8
0
10
-0.679231
20
0.403453
0
VERTEX
8
0
10
-0.678286
20
0.403739
0
VERTEX
8
0
10
-0.677264
20
0.403839
0
VERTEX
8
0
10
-0.602264
20
0.403839
0
VERTEX
8
0
10
-0.601241
20
0.403739
0
VERTEX
8
0
10
-0.600296
20
0.403453
0
VERTEX
8
0
10
-0.599446
20
0.402998
0
VERTEX
8
0
10
-0.598709
20
0.402393
0
VERTEX
8
0
10
-0.598104
20
0.401657
0
VERTEX
8
0
10
-0.597650
20
0.400806
0
VERTEX
8
0
10
-0.597363
20
0.399861
0
VERTEX
8
0
10
-0.597264
20
0.398839
0
VERTEX
8
0
10
-0.597264
20
0.323839
0
VERTEX
8
0
10
-0.597363
20
0.322816
0
VERTEX
8
0
10
-0.597650
20
0.321871
0
VERTEX
8
0
10
-0.598104
20
0.321020
0
VERTEX
8
0
10
-0.598709
20
0.320284
0
VERTEX
8
0
10
-0.599446
20
0.319679
0
VERTEX
8
0
10
-0.600296
20
0.319224
0
VERTEX
8
0
10
-0.601241
20
0.318938
0
VERTEX
8
0
10
-0.602264
20
0.318839
0
VERTEX
8
0
10
-0.677264
20
0.318839
0
VERTEX
8
0
10
-0.678286
20
0.318938
0
VERTEX
8
0
10
-0.679231
20
0.319224
0
VERTEX
8
0
10
-0.680081
20
0.319679
0
VERTEX
8
0
10
-0.680819
20
0.320284
0
VERTEX
8
0
10
-0.681423
20
0.321020
0
VERTEX
8
0
10
-0.681878
20
0.321871
0
VERTEX
8
0
10
-0.682164
20
0.322816
0
VERTEX
8
0
10
-0.682264
20
0.323839
0
SEQEND
8
0
0
POLYLINE
8
0
66
1
70
1
40
0
41
0
0
VERTEX
8
0
10
-0.682264
20
0.413839
0
VERTEX
8
0
10
-0.682264
20
0.488839
0
VERTEX
8
0
10
-0.682164
20
0.489861
0
VERTEX
8
0
10
-0.681878
20
0.490806
0
VERTEX
8
0
10
-0.681423
20
0.491657
0
VERTEX
8
0
10
-0.680819
20
0.492393
0
VERTEX
8
0
10
-0.680081
20
0.492998
0
VERTEX
8
0
10
-0.679231
20
0.493453
0
VERTEX
8
0
10
-0.678286
20
0.493739
0
VERTEX
8
0
10
-0.677264
20
0.493839
0
VERTEX
8
0
10
-0.602264
20
0.493839
0
VERTEX
8
0
10
-0.601241
20
0.493739
0
VERTEX
8
0
10
-0.600296
20
0.493453
0
VERTEX
8
0
10
-0.599446
20
0.492998
0
VERTEX
8
0
10
-0.598709
20
0.492393
0
VERTEX
8
0
10
-0.598104
20
0.491657
0
VERTEX
8
0
10
-0.597650
20
0.490806
0
VERTEX
8
0
10
-0.597363
20
0.489861
0
VERTEX
8
0
10
-0.597264
20
0.488839
0
VERTEX
8
0
10
-0.597264
20
0.413839
0
VERTEX
8
0
10
-0.597363
20
0.412816
0
VERTEX
8
0
10
-0.597650
20
0.411871
0
VERTEX
8
0
10
-0.598104
20
0.411020
0
VERTEX
8
0
10
-0.598709
20
0.410284
0
VERTEX
8
0
10
-0.599446
20
0.409679
0
VERTEX
8
0
10
-0.600296
20
0.409224
0
VERTEX
8
0
10
-0.601241
20
0.408938
0
VERTEX
8
0
10
-0.602264
20
0.408839
0
VERTEX
8
0
10
-0.677264
20
0.408839
0
VERTEX
8
0
10
-0.678286
20
0.408938
0
VERTEX
8
0
10
-0.679231
20
0.409224
0
VERTEX
8
0
10
-0.680081
20
0.409679
0
VERTEX
8
0
10
-0.680819
20
0.410284
0
VERTEX
8
0
10
-0.681423
20
0.411020
0
VERTEX
8
0
10
-0.681878
20
0.411871
0
VERTEX
8
0
10
-0.682164
20
0.412816
0
VERTEX
8
0
10
-0.682264
20
0.413839
0
SEQEND
8
0
0
POLYLINE
8
0
66
1
70
1
40
0
41
0
0
VERTEX
8
0
10
-0.682264
20
0.503839
0
VERTEX
8
0
10
-0.682264
20
0.578839
0
VERTEX
8
0
10
-0.682164
20
0.579861
0
VERTEX
8
0
10
-0.681878
20
0.580806
0
VERTEX
8
0
10
-0.681423
20
0.581657
0
VERTEX
8
0
10
-0.680819
20
0.582393
0
VERTEX
8
0
10
-0.680081
20
0.582998
0
VERTEX
8
0
10
-0.679231
20
0.583453
0
VERTEX
8
0
10
-0.678286
20
0.583739
0
VERTEX
8
0
10
-0.677264
20
0.583839
0
VERTEX
8
0
10
-0.602264
20
0.583839
0
VERTEX
8
0
10
-0.601241
20
0.583739
0
VERTEX
8
0
10
-0.600296
20
0.583453
0
VERTEX
8
0
10
-0.599446
20
0.582998
0
VERTEX
8
0
10
-0.598709
20
0.582393
0
VERTEX
8
0
10
-0.598104
20
0.581657
0
VERTEX
8
0
10
-0.597650
20
0.580806
0
VERTEX
8
0
10
-0.597363
20
0.579861
0
VERTEX
8
0
10
-0.597264
20
0.578839
0
VERTEX
8
0
10
-0.597264
20
0.503839
0
VERTEX
8
0
10
-0.597363
20
0.502816
0
VERTEX
8
0
10
-0.597650
20
0.501871
0
VERTEX
8
0
10
-0.598104
20
0.501020
0
VERTEX
8
0
10
-0.598709
20
0.500284
0
VERTEX
8
0
10
-0.599446
20
0.499679
0
VERTEX
8
0
10
-0.600296
20
0.499224
0
VERTEX
8
0
10
-0.601241
20
0.498938
0
VERTEX
8
0
10
-0.602264
20
0.498839
0
VERTEX
8
0
10
-0.677264
20
0.498839
0
VERTEX
8
0
10
-0.678286
20
0.498938
0
VERTEX
8
0
10
-0.679231
20
0.499224
0
VERTEX
8
0
10
-0.680081
20
0.499679
0
VERTEX
8
0
10
-0.680819
20
0.500284
0
VERTEX
8
0
10
-0.681423
20
0.501020
0
VERTEX
8
0
10
-0.681878
20
0.501871
0
VERTEX
8
0
10
-0.682164
20
0.502816
0
VERTEX
8
0
10
-0.682264
20
0.503839
0
SEQEND
8
0
0
INSERT
8
0
2
EPAD
10
-0.153937
20
0.639764
41
0.100000
42
0.100000
0
INSERT
8
0
2
EPAD
10
0.246063
20
0.639764
41
0.100000
42
0.100000
0
INSERT
8
0
2
EPAD
10
-0.541339
20
0.541339
41
0.080000
42
0.080000
0
INSERT
8
0
2
EPAD
10
-0.141339
20
0.541339
41
0.080000
42
0.080000
0
INSERT
8
0
2
EPAD
10
-0.449213
20
-2.017717
41
0.080000
42
0.080000
0
INSERT
8
0
2
EPAD
10
-0.449213
20
-1.817717
41
0.080000
42
0.080000
0
INSERT
8
0
2
EPAD
10
-0.639764
20
1.230315
41
0.090000
42
0.090000
0
INSERT
8
0
2
EPAD
10
0.541339
20
-1.722441
41
0.090000
42
0.090000
0
INSERT
8
0
2
EPAD
10
-0.147638
20
0.442913
41
0.090000
42
0.090000
0
INSERT
8
0
2
EPAD
10
0.246063
20
0.147638
41
0.070000
42
0.070000
0
INSERT
8
0
2
EPAD
10
0.246063
20
0.147638
41
0.070000
42
0.070000
0
INSERT
8
0
2
EPAD
10
0.246063
20
0.047638
41
0.070000
42
0.070000
0
INSERT
8
0
2
EPAD
10
0.246063
20
0.047638
41
0.070000
42
0.070000
0
POLYLINE
8
0
66
1
40
0.008000
41
0.008000
0
VERTEX
8
0
10
-1.033465
20
-2.411417
0
VERTEX
8
0
10
1.033465
20
-2.411417
0
VERTEX
8
0
10
1.033465
20
2.411417
0
VERTEX
8
0
10
-1.033465
20
2.411417
0
VERTEX
8
0
10
-1.033465
20
-2.411417
0
SEQEND
8
0
0
CIRCLE
8
0
10
0.321063
20
-0.344488
40
0.015000
0
POLYLINE
8
0
66
1
40
0.006000
41
0.006000
0
VERTEX
8
0
10
0.196063
20
-0.199488
0
VERTEX
8
0
10
0.196063
20
-0.589488
0
VERTEX
8
0
10
0.296063
20
-0.589488
0
VERTEX
8
0
10
0.296063
20
-0.199488
0
VERTEX
8
0
10
0.196063
20
-0.199488
0
SEQEND
8
0
0
TEXT
8
0
10
0.400063
20
-0.619488
40
0.048000
41
1.041667
50
90.000000
1
J-IN-TAHO
0
POLYLINE
8
0
66
1
40
0.008000
41
0.008000
0
VERTEX
8
0
10
0.049213
20
-0.589764
0
VERTEX
8
0
10
0.049213
20
-0.539764
0
SEQEND
8
0
0
POLYLINE
8
0
66
1
40
0.008000
41
0.008000
0
VERTEX
8
0
10
0.024213
20
-0.539764
0
VERTEX
8
0
10
0.074213
20
-0.539764
0
VERTEX
8
0
10
0.074213
20
-0.339764
0
VERTEX
8
0
10
0.024213
20
-0.339764
0
VERTEX
8
0
10
0.024213
20
-0.539764
0
SEQEND
8
0
0
POLYLINE
8
0
66
1
40
0.008000
41
0.008000
0
VERTEX
8
0
10
0.049213
20
-0.339764
0
VERTEX
8
0
10
0.049213
20
-0.289764
0
SEQEND
8
0
0
TEXT
8
0
10
0.014213
20
-0.489764
40
0.048000
41
1.041667
50
90.000000
1
R1
0
POLYLINE
8
0
66
1
40
0.008000
41
0.008000
0
VERTEX
8
0
10
-0.085213
20
-0.521063
0
VERTEX
8
0
10
-0.013213
20
-0.521063
0
VERTEX
8
0
10
-0.013213
20
-0.371063
0
VERTEX
8
0
10
-0.085213
20
-0.371063
0
VERTEX
8
0
10
-0.085213
20
-0.521063
0
SEQEND
8
0
0
POLYLINE
8
0
66
1
40
0.008000
41
0.008000
0
VERTEX
8
0
10
-0.014213
20
-0.396063
0
VERTEX
8
0
10
-0.084213
20
-0.396063
0
SEQEND
8
0
0
POLYLINE
8
0
66
1
40
0.008000
41
0.008000
0
VERTEX
8
0
10
-0.049213
20
-0.521063
0
VERTEX
8
0
10
-0.049213
20
-0.586063
0
SEQEND
8
0
0
POLYLINE
8
0
66
1
40
0.008000
41
0.008000
0
VERTEX
8
0
10
-0.049213
20
-0.371063
0
VERTEX
8
0
10
-0.049213
20
-0.306063
0
SEQEND
8
0
0
TEXT
8
0
10
0.044787
20
-0.496063
40
0.048000
41
1.041667
50
90.000000
1
D2
0
POLYLINE
8
0
66
1
40
0.008000
41
0.008000
0
VERTEX
8
0
10
-0.085213
20
0.069488
0
VERTEX
8
0
10
-0.013213
20
0.069488
0
VERTEX
8
0
10
-0.013213
20
0.219488
0
VERTEX
8
0
10
-0.085213
20
0.219488
0
VERTEX
8
0
10
-0.085213
20
0.069488
0
SEQEND
8
0
0
POLYLINE
8
0
66
1
40
0.008000
41
0.008000
0
VERTEX
8
0
10
-0.014213
20
0.194488
0
VERTEX
8
0
10
-0.084213
20
0.194488
0
SEQEND
8
0
0
POLYLINE
8
0
66
1
40
0.008000
41
0.008000
0
VERTEX
8
0
10
-0.049213
20
0.069488
0
VERTEX
8
0
10
-0.049213
20
0.004488
0
SEQEND
8
0
0
POLYLINE
8
0
66
1
40
0.008000
41
0.008000
0
VERTEX
8
0
10
-0.049213
20
0.219488
0
VERTEX
8
0
10
-0.049213
20
0.284488
0
SEQEND
8
0
0
TEXT
8
0
10
0.044787
20
0.094488
40
0.048000
41
1.041667
50
90.000000
1
D3
0
POLYLINE
8
0
66
1
40
0.008000
41
0.008000
0
VERTEX
8
0
10
-0.246063
20
-0.005512
0
VERTEX
8
0
10
-0.246063
20
0.044488
0
SEQEND
8
0
0
POLYLINE
8
0
66
1
40
0.008000
41
0.008000
0
VERTEX
8
0
10
-0.271063
20
0.044488
0
VERTEX
8
0
10
-0.221063
20
0.044488
0
VERTEX
8
0
10
-0.221063
20
0.244488
0
VERTEX
8
0
10
-0.271063
20
0.244488
0
VERTEX
8
0
10
-0.271063
20
0.044488
0
SEQEND
8
0
0
POLYLINE
8
0
66
1
40
0.008000
41
0.008000
0
VERTEX
8
0
10
-0.246063
20
0.244488
0
VERTEX
8
0
10
-0.246063
20
0.294488
0
SEQEND
8
0
0
TEXT
8
0
10
-0.281063
20
0.069488
40
0.048000
41
1.041667
50
90.000000
1
R14
0
POLYLINE
8
0
66
1
40
0.008000
41
0.008000
0
VERTEX
8
0
10
-0.442913
20
0.000787
0
VERTEX
8
0
10
-0.442913
20
0.050787
0
SEQEND
8
0
0
POLYLINE
8
0
66
1
40
0.008000
41
0.008000
0
VERTEX
8
0
10
-0.467913
20
0.050787
0
VERTEX
8
0
10
-0.417913
20
0.050787
0
VERTEX
8
0
10
-0.417913
20
0.250787
0
VERTEX
8
0
10
-0.467913
20
0.250787
0
VERTEX
8
0
10
-0.467913
20
0.050787
0
SEQEND
8
0
0
POLYLINE
8
0
66
1
40
0.008000
41
0.008000
0
VERTEX
8
0
10
-0.442913
20
0.250787
0
VERTEX
8
0
10
-0.442913
20
0.300787
0
SEQEND
8
0
0
TEXT
8
0
10
-0.477913
20
0.075787
40
0.048000
41
1.041667
50
90.000000
1
R15
0
POLYLINE
8
0
66
1
40
0.008000
41
0.008000
0
VERTEX
8
0
10
-0.294488
20
-0.147638
0
VERTEX
8
0
10
-0.244488
20
-0.147638
0
SEQEND
8
0
0
POLYLINE
8
0
66
1
40
0.008000
41
0.008000
0
VERTEX
8
0
10
-0.244488
20
-0.172638
0
VERTEX
8
0
10
-0.044488
20
-0.172638
0
VERTEX
8
0
10
-0.044488
20
-0.122638
0
VERTEX
8
0
10
-0.244488
20
-0.122638
0
VERTEX
8
0
10
-0.244488
20
-0.172638
0
SEQEND
8
0
0
POLYLINE
8
0
66
1
40
0.008000
41
0.008000
0
VERTEX
8
0
10
-0.044488
20
-0.147638
0
VERTEX
8
0
10
0.005512
20
-0.147638
0
SEQEND
8
0
0
TEXT
8
0
10
-0.219488
20
-0.112638
40
0.048000
41
1.041667
1
R13
0
POLYLINE
8
0
66
1
40
0.008000
41
0.008000
0
VERTEX
8
0
10
-0.492913
20
-0.269488
0
VERTEX
8
0
10
-0.492913
20
-0.419488
0
SEQEND
8
0
0
POLYLINE
8
0
66
1
40
0.008000
41
0.008000
0
VERTEX
8
0
10
-0.442913
20
-0.249488
0
VERTEX
8
0
10
-0.452239
20
-0.250348
0
VERTEX
8
0
10
-0.461273
20
-0.252613
0
VERTEX
8
0
10
-0.477288
20
-0.259488
0
VERTEX
8
0
10
-0.492913
20
-0.269488
0
SEQEND
8
0
0
POLYLINE
8
0
66
1
40
0.008000
41
0.008000
0
VERTEX
8
0
10
-0.442913
20
-0.249488
0
VERTEX
8
0
10
-0.422467
20
-0.249828
0
VERTEX
8
0
10
-0.403558
20
-0.254313
0
VERTEX
8
0
10
-0.386554
20
-0.262518
0
VERTEX
8
0
10
-0.371820
20
-0.274019
0
VERTEX
8
0
10
-0.359722
20
-0.288392
0
VERTEX
8
0
10
-0.350628
20
-0.305211
0
VERTEX
8
0
10
-0.344903
20
-0.324051
0
VERTEX
8
0
10
-0.342913
20
-0.344488
0
SEQEND
8
0
0
POLYLINE
8
0
66
1
40
0.008000
41
0.008000
0
VERTEX
8
0
10
-0.442913
20
-0.439488
0
VERTEX
8
0
10
-0.452239
20
-0.438629
0
VERTEX
8
0
10
-0.461273
20
-0.436363
0
VERTEX
8
0
10
-0.477288
20
-0.429488
0
VERTEX
8
0
10
-0.492913
20
-0.419488
0
SEQEND
8
0
0
POLYLINE
8
0
66
1
40
0.008000
41
0.008000
0
VERTEX
8
0
10
-0.442913
20
-0.439488
0
VERTEX
8
0
10
-0.422467
20
-0.439149
0
VERTEX
8
0
10
-0.403558
20
-0.434664
0
VERTEX
8
0
10
-0.386554
20
-0.426458
0
VERTEX
8
0
10
-0.371820
20
-0.414957
0
VERTEX
8
0
10
-0.359722
20
-0.400584
0
VERTEX
8
0
10
-0.350628
20
-0.383765
0
VERTEX
8
0
10
-0.344903
20
-0.364925
0
VERTEX
8
0
10
-0.342913
20
-0.344488
0
SEQEND
8
0
0
TEXT
8
0
10
-0.284913
20
-0.394488
40
0.048000
41
1.041667
50
90.000000
1
Q4
0
POLYLINE
8
0
66
1
40
0.008000
41
0.008000
0
VERTEX
8
0
10
-0.147638
20
-0.196063
0
VERTEX
8
0
10
-0.137450
20
-0.198063
0
VERTEX
8
0
10
-0.128013
20
-0.203813
0
VERTEX
8
0
10
-0.119513
20
-0.212938
0
VERTEX
8
0
10
-0.112138
20
-0.225063
0
VERTEX
8
0
10
-0.106075
20
-0.239813
0
VERTEX
8
0
10
-0.101513
20
-0.256813
0
VERTEX
8
0
10
-0.098638
20
-0.275688
0
VERTEX
8
0
10
-0.097638
20
-0.296063
0
SEQEND
8
0
0
POLYLINE
8
0
66
1
40
0.008000
41
0.008000
0
VERTEX
8
0
10
-0.147638
20
-0.396063
0
VERTEX
8
0
10
-0.137450
20
-0.394063
0
VERTEX
8
0
10
-0.128013
20
-0.388313
0
VERTEX
8
0
10
-0.119513
20
-0.379188
0
VERTEX
8
0
10
-0.112138
20
-0.367063
0
VERTEX
8
0
10
-0.106075
20
-0.352313
0
VERTEX
8
0
10
-0.101513
20
-0.335313
0
VERTEX
8
0
10
-0.098638
20
-0.316438
0
VERTEX
8
0
10
-0.097638
20
-0.296063
0
SEQEND
8
0
0
POLYLINE
8
0
66
1
40
0.008000
41
0.008000
0
VERTEX
8
0
10
-0.147638
20
-0.196063
0
VERTEX
8
0
10
-0.157825
20
-0.198063
0
VERTEX
8
0
10
-0.167263
20
-0.203813
0
VERTEX
8
0
10
-0.175763
20
-0.212938
0
VERTEX
8
0
10
-0.183138
20
-0.225063
0
VERTEX
8
0
10
-0.189200
20
-0.239813
0
VERTEX
8
0
10
-0.193763
20
-0.256813
0
VERTEX
8
0
10
-0.196638
20
-0.275688
0
VERTEX
8
0
10
-0.197638
20
-0.296063
0
SEQEND
8
0
0
POLYLINE
8
0
66
1
40
0.008000
41
0.008000
0
VERTEX
8
0
10
-0.147638
20
-0.396063
0
VERTEX
8
0
10
-0.157825
20
-0.394063
0
VERTEX
8
0
10
-0.167263
20
-0.388313
0
VERTEX
8
0
10
-0.175763
20
-0.379188
0
VERTEX
8
0
10
-0.183138
20
-0.367063
0
VERTEX
8
0
10
-0.189200
20
-0.352313
0
VERTEX
8
0
10
-0.193763
20
-0.335313
0
VERTEX
8
0
10
-0.196638
20
-0.316438
0
VERTEX
8
0
10
-0.197638
20
-0.296063
0
SEQEND
8
0
0
TEXT
8
0
10
-0.039638
20
-0.346063
40
0.048000
41
1.041667
50
90.000000
1
C3
0
POLYLINE
8
0
66
1
40
0.008000
41
0.008000
0
VERTEX
8
0
10
-0.639764
20
-0.297638
0
VERTEX
8
0
10
-0.649951
20
-0.295638
0
VERTEX
8
0
10
-0.659389
20
-0.289888
0
VERTEX
8
0
10
-0.667889
20
-0.280763
0
VERTEX
8
0
10
-0.675264
20
-0.268638
0
VERTEX
8
0
10
-0.681326
20
-0.253888
0
VERTEX
8
0
10
-0.685889
20
-0.236888
0
VERTEX
8
0
10
-0.688764
20
-0.218013
0
VERTEX
8
0
10
-0.689764
20
-0.197638
0
SEQEND
8
0
0
POLYLINE
8
0
66
1
40
0.008000
41
0.008000
0
VERTEX
8
0
10
-0.639764
20
-0.097638
0
VERTEX
8
0
10
-0.649951
20
-0.099638
0
VERTEX
8
0
10
-0.659389
20
-0.105388
0
VERTEX
8
0
10
-0.667889
20
-0.114513
0
VERTEX
8
0
10
-0.675264
20
-0.126638
0
VERTEX
8
0
10
-0.681326
20
-0.141388
0
VERTEX
8
0
10
-0.685889
20
-0.158388
0
VERTEX
8
0
10
-0.688764
20
-0.177263
0
VERTEX
8
0
10
-0.689764
20
-0.197638
0
SEQEND
8
0
0
POLYLINE
8
0
66
1
40
0.008000
41
0.008000
0
VERTEX
8
0
10
-0.639764
20
-0.297638
0
VERTEX
8
0
10
-0.629576
20
-0.295638
0
VERTEX
8
0
10
-0.620139
20
-0.289888
0
VERTEX
8
0
10
-0.611639
20
-0.280763
0
VERTEX
8
0
10
-0.604264
20
-0.268638
0
VERTEX
8
0
10
-0.598201
20
-0.253888
0
VERTEX
8
0
10
-0.593639
20
-0.236888
0
VERTEX
8
0
10
-0.590764
20
-0.218013
0
VERTEX
8
0
10
-0.589764
20
-0.197638
0
SEQEND
8
0
0
POLYLINE
8
0
66
1
40
0.008000
41
0.008000
0
VERTEX
8
0
10
-0.639764
20
-0.097638
0
VERTEX
8
0
10
-0.629576
20
-0.099638
0
VERTEX
8
0
10
-0.620139
20
-0.105388
0
VERTEX
8
0
10
-0.611639
20
-0.114513
0
VERTEX
8
0
10
-0.604264
20
-0.126638
0
VERTEX
8
0
10
-0.598201
20
-0.141388
0
VERTEX
8
0
10
-0.593639
20
-0.158388
0
VERTEX
8
0
10
-0.590764
20
-0.177263
0
VERTEX
8
0
10
-0.589764
20
-0.197638
0
SEQEND
8
0
0
TEXT
8
0
10
-0.699764
20
-0.247638
40
0.048000
41
1.041667
50
90.000000
1
C4
0
CIRCLE
8
0
10
-0.639764
20
0.049213
40
0.050000
0
CIRCLE
8
0
10
-0.639764
20
0.049213
40
0.025000
0
TEXT
8
0
10
-0.699764
20
-0.100787
40
0.048000
41
1.041667
50
90.000000
1
J-TAHO
0
CIRCLE
8
0
10
0.663189
20
1.320866
40
0.015000
0
POLYLINE
8
0
66
1
40
0.006000
41
0.006000
0
VERTEX
8
0
10
0.788189
20
1.175866
0
VERTEX
8
0
10
0.788189
20
1.965866
0
VERTEX
8
0
10
0.688189
20
1.965866
0
VERTEX
8
0
10
0.688189
20
1.175866
0
VERTEX
8
0
10
0.788189
20
1.175866
0
SEQEND
8
0
0
TEXT
8
0
10
0.632189
20
1.520866
40
0.048000
41
1.041667
50
90.000000
1
J5
0
POLYLINE
8
0
66
1
40
0.008000
41
0.008000
0
VERTEX
8
0
10
-0.222638
20
0.816850
0
VERTEX
8
0
10
0.227362
20
0.816850
0
VERTEX
8
0
10
0.227362
20
2.007795
0
VERTEX
8
0
10
-0.222638
20
2.007795
0
VERTEX
8
0
10
-0.222638
20
0.816850
0
SEQEND
8
0
0
TEXT
8
0
10
-0.232638
20
1.337323
40
0.048000
41
1.041667
50
90.000000
1
RL1
0
POLYLINE
8
0
66
1
40
0.008000
41
0.008000
0
VERTEX
8
0
10
0.292913
20
1.967717
0
VERTEX
8
0
10
0.592913
20
1.967717
0
VERTEX
8
0
10
0.592913
20
2.067717
0
VERTEX
8
0
10
0.292913
20
2.067717
0
VERTEX
8
0
10
0.292913
20
1.967717
0
SEQEND
8
0
0
POLYLINE
8
0
66
1
40
0.008000
41
0.008000
0
VERTEX
8
0
10
0.292913
20
2.067717
0
VERTEX
8
0
10
0.292913
20
2.117717
0
VERTEX
8
0
10
0.592913
20
2.117717
0
VERTEX
8
0
10
0.592913
20
2.067717
0
SEQEND
8
0
0
POLYLINE
8
0
66
1
40
0.008000
41
0.008000
0
VERTEX
8
0
10
0.292913
20
2.067717
0
VERTEX
8
0
10
0.342913
20
2.117717
0
SEQEND
8
0
0
POLYLINE
8
0
66
1
40
0.008000
41
0.008000
0
VERTEX
8
0
10
0.342913
20
2.067717
0
VERTEX
8
0
10
0.392913
20
2.117717
0
SEQEND
8
0
0
POLYLINE
8
0
66
1
40
0.008000
41
0.008000
0
VERTEX
8
0
10
0.392913
20
2.067717
0
VERTEX
8
0
10
0.442913
20
2.117717
0
SEQEND
8
0
0
POLYLINE
8
0
66
1
40
0.008000
41
0.008000
0
VERTEX
8
0
10
0.442913
20
2.067717
0
VERTEX
8
0
10
0.492913
20
2.117717
0
SEQEND
8
0
0
POLYLINE
8
0
66
1
40
0.008000
41
0.008000
0
VERTEX
8
0
10
0.492913
20
2.067717
0
VERTEX
8
0
10
0.542913
20
2.117717
0
SEQEND
8
0
0
POLYLINE
8
0
66
1
40
0.008000
41
0.008000
0
VERTEX
8
0
10
0.542913
20
2.067717
0
VERTEX
8
0
10
0.592913
20
2.117717
0
SEQEND
8
0
0
TEXT
8
0
10
0.392913
20
2.127717
40
0.048000
41
1.041667
1
U4
0
POLYLINE
8
0
66
1
40
0.008000
41
0.008000
0
VERTEX
8
0
10
0.885039
20
0.935039
0
VERTEX
8
0
10
0.835039
20
0.935039
0
SEQEND
8
0
0
POLYLINE
8
0
66
1
40
0.008000
41
0.008000
0
VERTEX
8
0
10
0.435039
20
0.885039
0
VERTEX
8
0
10
0.835039
20
0.885039
0
VERTEX
8
0
10
0.835039
20
0.985039
0
VERTEX
8
0
10
0.435039
20
0.985039
0
VERTEX
8
0
10
0.435039
20
0.885039
0
SEQEND
8
0
0
POLYLINE
8
0
66
1
40
0.008000
41
0.008000
0
VERTEX
8
0
10
0.435039
20
0.935039
0
VERTEX
8
0
10
0.385039
20
0.935039
0
SEQEND
8
0
0
TEXT
8
0
10
0.560039
20
0.827039
40
0.048000
41
1.041667
1
R11
0
POLYLINE
8
0
66
1
40
0.008000
41
0.008000
0
VERTEX
8
0
10
0.344488
20
1.275591
0
VERTEX
8
0
10
0.334301
20
1.278550
0
VERTEX
8
0
10
0.324863
20
1.287075
0
VERTEX
8
0
10
0.316363
20
1.300639
0
VERTEX
8
0
10
0.308988
20
1.318716
0
VERTEX
8
0
10
0.302926
20
1.340776
0
VERTEX
8
0
10
0.298363
20
1.366294
0
VERTEX
8
0
10
0.295488
20
1.394741
0
VERTEX
8
0
10
0.294488
20
1.425591
0
SEQEND
8
0
0
POLYLINE
8
0
66
1
40
0.008000
41
0.008000
0
VERTEX
8
0
10
0.344488
20
1.575591
0
VERTEX
8
0
10
0.334301
20
1.572591
0
VERTEX
8
0
10
0.324863
20
1.563965
0
VERTEX
8
0
10
0.316363
20
1.550278
0
VERTEX
8
0
10
0.308988
20
1.532091
0
VERTEX
8
0
10
0.302926
20
1.509965
0
VERTEX
8
0
10
0.298363
20
1.484465
0
VERTEX
8
0
10
0.295488
20
1.456153
0
VERTEX
8
0
10
0.294488
20
1.425591
0
SEQEND
8
0
0
POLYLINE
8
0
66
1
40
0.008000
41
0.008000
0
VERTEX
8
0
10
0.344488
20
1.575591
0
VERTEX
8
0
10
0.354676
20
1.572591
0
VERTEX
8
0
10
0.364113
20
1.563965
0
VERTEX
8
0
10
0.372613
20
1.550278
0
VERTEX
8
0
10
0.379988
20
1.532091
0
VERTEX
8
0
10
0.386051
20
1.509965
0
VERTEX
8
0
10
0.390613
20
1.484465
0
VERTEX
8
0
10
0.393488
20
1.456153
0
VERTEX
8
0
10
0.394488
20
1.425591
0
SEQEND
8
0
0
POLYLINE
8
0
66
1
40
0.008000
41
0.008000
0
VERTEX
8
0
10
0.344488
20
1.275591
0
VERTEX
8
0
10
0.354676
20
1.278550
0
VERTEX
8
0
10
0.364113
20
1.287075
0
VERTEX
8
0
10
0.372613
20
1.300639
0
VERTEX
8
0
10
0.379988
20
1.318716
0
VERTEX
8
0
10
0.386051
20
1.340776
0
VERTEX
8
0
10
0.390613
20
1.366294
0
VERTEX
8
0
10
0.393488
20
1.394741
0
VERTEX
8
0
10
0.394488
20
1.425591
0
SEQEND
8
0
0
TEXT
8
0
10
0.284488
20
1.375591
40
0.048000
41
1.041667
50
90.000000
1
C2
0
POLYLINE
8
0
66
1
40
0.008000
41
0.008000
0
VERTEX
8
0
10
-0.594488
20
1.086614
0
VERTEX
8
0
10
-0.544488
20
1.086614
0
SEQEND
8
0
0
POLYLINE
8
0
66
1
40
0.008000
41
0.008000
0
VERTEX
8
0
10
-0.494488
20
1.036614
0
VERTEX
8
0
10
-0.484301
20
1.037573
0
VERTEX
8
0
10
-0.474863
20
1.040348
0
VERTEX
8
0
10
-0.466363
20
1.044788
0
VERTEX
8
0
10
-0.458988
20
1.050739
0
VERTEX
8
0
10
-0.452926
20
1.058050
0
VERTEX
8
0
10
-0.448363
20
1.066567
0
VERTEX
8
0
10
-0.445488
20
1.076139
0
VERTEX
8
0
10
-0.444488
20
1.086614
0
SEQEND
8
0
0
POLYLINE
8
0
66
1
40
0.008000
41
0.008000
0
VERTEX
8
0
10
-0.494488
20
1.036614
0
VERTEX
8
0
10
-0.504963
20
1.037573
0
VERTEX
8
0
10
-0.514535
20
1.040348
0
VERTEX
8
0
10
-0.523053
20
1.044788
0
VERTEX
8
0
10
-0.530363
20
1.050739
0
VERTEX
8
0
10
-0.536314
20
1.058050
0
VERTEX
8
0
10
-0.540754
20
1.066567
0
VERTEX
8
0
10
-0.543529
20
1.076139
0
VERTEX
8
0
10
-0.544488
20
1.086614
0
SEQEND
8
0
0
POLYLINE
8
0
66
1
40
0.008000
41
0.008000
0
VERTEX
8
0
10
-0.444488
20
1.086614
0
VERTEX
8
0
10
-0.394488
20
1.086614
0
SEQEND
8
0
0
POLYLINE
8
0
66
1
40
0.008000
41
0.008000
0
VERTEX
8
0
10
-0.594488
20
0.786614
0
VERTEX
8
0
10
-0.394488
20
0.786614
0
SEQEND
8
0
0
POLYLINE
8
0
66
1
40
0.008000
41
0.008000
0
VERTEX
8
0
10
-0.594488
20
1.086614
0
VERTEX
8
0
10
-0.594488
20
0.786614
0
SEQEND
8
0
0
POLYLINE
8
0
66
1
40
0.008000
41
0.008000
0
VERTEX
8
0
10
-0.394488
20
1.086614
0
VERTEX
8
0
10
-0.394488
20
0.786614
0
SEQEND
8
0
0
TEXT
8
0
10
-0.544488
20
1.096614
40
0.048000
41
1.041667
1
U3
0
POLYLINE
8
0
66
1
40
0.008000
41
0.008000
0
VERTEX
8
0
10
-0.005512
20
2.214567
0
VERTEX
8
0
10
0.044488
20
2.214567
0
SEQEND
8
0
0
POLYLINE
8
0
66
1
40
0.008000
41
0.008000
0
VERTEX
8
0
10
0.044488
20
2.189567
0
VERTEX
8
0
10
0.244488
20
2.189567
0
VERTEX
8
0
10
0.244488
20
2.239567
0
VERTEX
8
0
10
0.044488
20
2.239567
0
VERTEX
8
0
10
0.044488
20
2.189567
0
SEQEND
8
0
0
POLYLINE
8
0
66
1
40
0.008000
41
0.008000
0
VERTEX
8
0
10
0.244488
20
2.214567
0
VERTEX
8
0
10
0.294488
20
2.214567
0
SEQEND
8
0
0
TEXT
8
0
10
-0.200787
20
2.249567
40
0.048000
41
1.041667
1
R9
0
POLYLINE
8
0
66
1
40
0.008000
41
0.008000
0
VERTEX
8
0
10
-0.442913
20
1.967717
0
VERTEX
8
0
10
-0.442913
20
1.917717
0
SEQEND
8
0
0
POLYLINE
8
0
66
1
40
0.008000
41
0.008000
0
VERTEX
8
0
10
-0.467913
20
1.717717
0
VERTEX
8
0
10
-0.417913
20
1.717717
0
VERTEX
8
0
10
-0.417913
20
1.917717
0
VERTEX
8
0
10
-0.467913
20
1.917717
0
VERTEX
8
0
10
-0.467913
20
1.717717
0
SEQEND
8
0
0
POLYLINE
8
0
66
1
40
0.008000
41
0.008000
0
VERTEX
8
0
10
-0.442913
20
1.717717
0
VERTEX
8
0
10
-0.442913
20
1.667717
0
SEQEND
8
0
0
TEXT
8
0
10
-0.359913
20
1.742717
40
0.048000
41
1.041667
50
90.000000
1
R10
0
POLYLINE
8
0
66
1
40
0.008000
41
0.008000
0
VERTEX
8
0
10
-0.300787
20
-1.081890
0
VERTEX
8
0
10
-0.250787
20
-1.081890
0
SEQEND
8
0
0
POLYLINE
8
0
66
1
40
0.008000
41
0.008000
0
VERTEX
8
0
10
-0.200787
20
-1.131890
0
VERTEX
8
0
10
-0.190600
20
-1.130931
0
VERTEX
8
0
10
-0.181162
20
-1.128156
0
VERTEX
8
0
10
-0.172662
20
-1.123716
0
VERTEX
8
0
10
-0.165287
20
-1.117765
0
VERTEX
8
0
10
-0.159225
20
-1.110454
0
VERTEX
8
0
10
-0.154662
20
-1.101937
0
VERTEX
8
0
10
-0.151787
20
-1.092365
0
VERTEX
8
0
10
-0.150787
20
-1.081890
0
SEQEND
8
0
0
POLYLINE
8
0
66
1
40
0.008000
41
0.008000
0
VERTEX
8
0
10
-0.200787
20
-1.131890
0
VERTEX
8
0
10
-0.211262
20
-1.130931
0
VERTEX
8
0
10
-0.220834
20
-1.128156
0
VERTEX
8
0
10
-0.229352
20
-1.123716
0
VERTEX
8
0
10
-0.236662
20
-1.117765
0
VERTEX
8
0
10
-0.242613
20
-1.110454
0
VERTEX
8
0
10
-0.247053
20
-1.101937
0
VERTEX
8
0
10
-0.249828
20
-1.092365
0
VERTEX
8
0
10
-0.250787
20
-1.081890
0
SEQEND
8
0
0
POLYLINE
8
0
66
1
40
0.008000
41
0.008000
0
VERTEX
8
0
10
-0.150787
20
-1.081890
0
VERTEX
8
0
10
-0.100787
20
-1.081890
0
SEQEND
8
0
0
POLYLINE
8
0
66
1
40
0.008000
41
0.008000
0
VERTEX
8
0
10
-0.300787
20
-1.381890
0
VERTEX
8
0
10
-0.100787
20
-1.381890
0
SEQEND
8
0
0
POLYLINE
8
0
66
1
40
0.008000
41
0.008000
0
VERTEX
8
0
10
-0.300787
20
-1.081890
0
VERTEX
8
0
10
-0.300787
20
-1.381890
0
SEQEND
8
0
0
POLYLINE
8
0
66
1
40
0.008000
41
0.008000
0
VERTEX
8
0
10
-0.100787
20
-1.081890
0
VERTEX
8
0
10
-0.100787
20
-1.381890
0
SEQEND
8
0
0
TEXT
8
0
10
-0.275787
20
-1.071890
40
0.048000
41
1.041667
1
BR1
0
POLYLINE
8
0
66
1
40
0.008000
41
0.008000
0
VERTEX
8
0
10
-0.646063
20
-1.481890
0
VERTEX
8
0
10
-0.646063
20
-1.431890
0
SEQEND
8
0
0
POLYLINE
8
0
66
1
40
0.008000
41
0.008000
0
VERTEX
8
0
10
-0.671063
20
-1.431890
0
VERTEX
8
0
10
-0.621063
20
-1.431890
0
VERTEX
8
0
10
-0.621063
20
-1.231890
0
VERTEX
8
0
10
-0.671063
20
-1.231890
0
VERTEX
8
0
10
-0.671063
20
-1.431890
0
SEQEND
8
0
0
POLYLINE
8
0
66
1
40
0.008000
41
0.008000
0
VERTEX
8
0
10
-0.646063
20
-1.231890
0
VERTEX
8
0
10
-0.646063
20
-1.181890
0
SEQEND
8
0
0
TEXT
8
0
10
-0.681063
20
-1.381890
40
0.048000
41
1.041667
50
90.000000
1
R2
0
POLYLINE
8
0
66
1
40
0.008000
41
0.008000
0
VERTEX
8
0
10
-0.694488
20
-0.836614
0
VERTEX
8
0
10
-0.644488
20
-0.836614
0
SEQEND
8
0
0
POLYLINE
8
0
66
1
40
0.008000
41
0.008000
0
VERTEX
8
0
10
-0.644488
20
-0.861614
0
VERTEX
8
0
10
-0.444488
20
-0.861614
0
VERTEX
8
0
10
-0.444488
20
-0.811614
0
VERTEX
8
0
10
-0.644488
20
-0.811614
0
VERTEX
8
0
10
-0.644488
20
-0.861614
0
SEQEND
8
0
0
POLYLINE
8
0
66
1
40
0.008000
41
0.008000
0
VERTEX
8
0
10
-0.444488
20
-0.836614
0
VERTEX
8
0
10
-0.394488
20
-0.836614
0
SEQEND
8
0
0
TEXT
8
0
10
-0.594488
20
-0.801614
40
0.048000
41
1.041667
1
R3
0
POLYLINE
8
0
66
1
40
0.008000
41
0.008000
0
VERTEX
8
0
10
-0.103937
20
-0.836614
0
VERTEX
8
0
10
-0.053937
20
-0.836614
0
SEQEND
8
0
0
POLYLINE
8
0
66
1
40
0.008000
41
0.008000
0
VERTEX
8
0
10
-0.053937
20
-0.861614
0
VERTEX
8
0
10
0.146063
20
-0.861614
0
VERTEX
8
0
10
0.146063
20
-0.811614
0
VERTEX
8
0
10
-0.053937
20
-0.811614
0
VERTEX
8
0
10
-0.053937
20
-0.861614
0
SEQEND
8
0
0
POLYLINE
8
0
66
1
40
0.008000
41
0.008000
0
VERTEX
8
0
10
0.146063
20
-0.836614
0
VERTEX
8
0
10
0.196063
20
-0.836614
0
SEQEND
8
0
0
TEXT
8
0
10
-0.003937
20
-0.801614
40
0.048000
41
1.041667
1
R4
0
POLYLINE
8
0
66
1
40
0.008000
41
0.008000
0
VERTEX
8
0
10
-0.646063
20
-1.674016
0
VERTEX
8
0
10
-0.646063
20
-1.724016
0
SEQEND
8
0
0
POLYLINE
8
0
66
1
40
0.008000
41
0.008000
0
VERTEX
8
0
10
-0.671063
20
-1.924016
0
VERTEX
8
0
10
-0.621063
20
-1.924016
0
VERTEX
8
0
10
-0.621063
20
-1.724016
0
VERTEX
8
0
10
-0.671063
20
-1.724016
0
VERTEX
8
0
10
-0.671063
20
-1.924016
0
SEQEND
8
0
0
POLYLINE
8
0
66
1
40
0.008000
41
0.008000
0
VERTEX
8
0
10
-0.646063
20
-1.924016
0
VERTEX
8
0
10
-0.646063
20
-1.974016
0
SEQEND
8
0
0
TEXT
8
0
10
-0.563063
20
-1.874016
40
0.048000
41
1.041667
50
90.000000
1
R6
0
POLYLINE
8
0
66
1
40
0.008000
41
0.008000
0
VERTEX
8
0
10
-0.300787
20
-1.525591
0
VERTEX
8
0
10
-0.250787
20
-1.525591
0
SEQEND
8
0
0
POLYLINE
8
0
66
1
40
0.008000
41
0.008000
0
VERTEX
8
0
10
-0.250787
20
-1.550591
0
VERTEX
8
0
10
-0.050787
20
-1.550591
0
VERTEX
8
0
10
-0.050787
20
-1.500591
0
VERTEX
8
0
10
-0.250787
20
-1.500591
0
VERTEX
8
0
10
-0.250787
20
-1.550591
0
SEQEND
8
0
0
POLYLINE
8
0
66
1
40
0.008000
41
0.008000
0
VERTEX
8
0
10
-0.050787
20
-1.525591
0
VERTEX
8
0
10
-0.000787
20
-1.525591
0
SEQEND
8
0
0
TEXT
8
0
10
-0.200787
20
-1.490591
40
0.048000
41
1.041667
1
R5
0
POLYLINE
8
0
66
1
40
0.008000
41
0.008000
0
VERTEX
8
0
10
-0.078937
20
-1.720866
0
VERTEX
8
0
10
-0.228937
20
-1.720866
0
SEQEND
8
0
0
POLYLINE
8
0
66
1
40
0.008000
41
0.008000
0
VERTEX
8
0
10
-0.058937
20
-1.770866
0
VERTEX
8
0
10
-0.059796
20
-1.761540
0
VERTEX
8
0
10
-0.062062
20
-1.752507
0
VERTEX
8
0
10
-0.068937
20
-1.736491
0
VERTEX
8
0
10
-0.078937
20
-1.720866
0
SEQEND
8
0
0
POLYLINE
8
0
66
1
40
0.008000
41
0.008000
0
VERTEX
8
0
10
-0.058937
20
-1.770866
0
VERTEX
8
0
10
-0.059276
20
-1.791313
0
VERTEX
8
0
10
-0.063761
20
-1.810222
0
VERTEX
8
0
10
-0.071967
20
-1.827226
0
VERTEX
8
0
10
-0.083468
20
-1.841960
0
VERTEX
8
0
10
-0.097841
20
-1.854057
0
VERTEX
8
0
10
-0.114660
20
-1.863151
0
VERTEX
8
0
10
-0.133500
20
-1.868876
0
VERTEX
8
0
10
-0.153937
20
-1.870866
0
SEQEND
8
0
0
POLYLINE
8
0
66
1
40
0.008000
41
0.008000
0
VERTEX
8
0
10
-0.248937
20
-1.770866
0
VERTEX
8
0
10
-0.248078
20
-1.761540
0
VERTEX
8
0
10
-0.245812
20
-1.752507
0
VERTEX
8
0
10
-0.238937
20
-1.736491
0
VERTEX
8
0
10
-0.228937
20
-1.720866
0
SEQEND
8
0
0
POLYLINE
8
0
66
1
40
0.008000
41
0.008000
0
VERTEX
8
0
10
-0.248937
20
-1.770866
0
VERTEX
8
0
10
-0.248598
20
-1.791313
0
VERTEX
8
0
10
-0.244113
20
-1.810222
0
VERTEX
8
0
10
-0.235907
20
-1.827226
0
VERTEX
8
0
10
-0.224406
20
-1.841960
0
VERTEX
8
0
10
-0.210033
20
-1.854057
0
VERTEX
8
0
10
-0.193214
20
-1.863151
0
VERTEX
8
0
10
-0.174374
20
-1.868876
0
VERTEX
8
0
10
-0.153937
20
-1.870866
0
SEQEND
8
0
0
TEXT
8
0
10
-0.203937
20
-1.928866
40
0.048000
41
1.041667
1
Q1
0
POLYLINE
8
0
66
1
40
0.008000
41
0.008000
0
VERTEX
8
0
10
-0.078937
20
-1.967717
0
VERTEX
8
0
10
-0.228937
20
-1.967717
0
SEQEND
8
0
0
POLYLINE
8
0
66
1
40
0.008000
41
0.008000
0
VERTEX
8
0
10
-0.058937
20
-2.017717
0
VERTEX
8
0
10
-0.059796
20
-2.008391
0
VERTEX
8
0
10
-0.062062
20
-1.999357
0
VERTEX
8
0
10
-0.068937
20
-1.983342
0
VERTEX
8
0
10
-0.078937
20
-1.967717
0
SEQEND
8
0
0
POLYLINE
8
0
66
1
40
0.008000
41
0.008000
0
VERTEX
8
0
10
-0.058937
20
-2.017717
0
VERTEX
8
0
10
-0.059276
20
-2.038163
0
VERTEX
8
0
10
-0.063761
20
-2.057072
0
VERTEX
8
0
10
-0.071967
20
-2.074076
0
VERTEX
8
0
10
-0.083468
20
-2.088810
0
VERTEX
8
0
10
-0.097841
20
-2.100907
0
VERTEX
8
0
10
-0.114660
20
-2.110002
0
VERTEX
8
0
10
-0.133500
20
-2.115727
0
VERTEX
8
0
10
-0.153937
20
-2.117717
0
SEQEND
8
0
0
POLYLINE
8
0
66
1
40
0.008000
41
0.008000
0
VERTEX
8
0
10
-0.248937
20
-2.017717
0
VERTEX
8
0
10
-0.248078
20
-2.008391
0
VERTEX
8
0
10
-0.245812
20
-1.999357
0
VERTEX
8
0
10
-0.238937
20
-1.983342
0
VERTEX
8
0
10
-0.228937
20
-1.967717
0
SEQEND
8
0
0
POLYLINE
8
0
66
1
40
0.008000
41
0.008000
0
VERTEX
8
0
10
-0.248937
20
-2.017717
0
VERTEX
8
0
10
-0.248598
20
-2.038163
0
VERTEX
8
0
10
-0.244113
20
-2.057072
0
VERTEX
8
0
10
-0.235907
20
-2.074076
0
VERTEX
8
0
10
-0.224406
20
-2.088810
0
VERTEX
8
0
10
-0.210033
20
-2.100907
0
VERTEX
8
0
10
-0.193214
20
-2.110002
0
VERTEX
8
0
10
-0.174374
20
-2.115727
0
VERTEX
8
0
10
-0.153937
20
-2.117717
0
SEQEND
8
0
0
TEXT
8
0
10
-0.203937
20
-2.175717
40
0.048000
41
1.041667
1
Q2
0
POLYLINE
8
0
66
1
40
0.008000
41
0.008000
0
VERTEX
8
0
10
-0.527362
20
-2.250567
0
VERTEX
8
0
10
-0.377362
20
-2.250567
0
VERTEX
8
0
10
-0.377362
20
-2.178567
0
VERTEX
8
0
10
-0.527362
20
-2.178567
0
VERTEX
8
0
10
-0.527362
20
-2.250567
0
SEQEND
8
0
0
POLYLINE
8
0
66
1
40
0.008000
41
0.008000
0
VERTEX
8
0
10
-0.402362
20
-2.249567
0
VERTEX
8
0
10
-0.402362
20
-2.179567
0
SEQEND
8
0
0
POLYLINE
8
0
66
1
40
0.008000
41
0.008000
0
VERTEX
8
0
10
-0.527362
20
-2.214567
0
VERTEX
8
0
10
-0.592362
20
-2.214567
0
SEQEND
8
0
0
POLYLINE
8
0
66
1
40
0.008000
41
0.008000
0
VERTEX
8
0
10
-0.377362
20
-2.214567
0
VERTEX
8
0
10
-0.312362
20
-2.214567
0
SEQEND
8
0
0
TEXT
8
0
10
-0.502362
20
-2.308567
40
0.048000
41
1.041667
1
D1
0
POLYLINE
8
0
66
1
40
0.008000
41
0.008000
0
VERTEX
8
0
10
-0.011811
20
-2.214567
0
VERTEX
8
0
10
0.038189
20
-2.214567
0
SEQEND
8
0
0
POLYLINE
8
0
66
1
40
0.008000
41
0.008000
0
VERTEX
8
0
10
0.038189
20
-2.239567
0
VERTEX
8
0
10
0.238189
20
-2.239567
0
VERTEX
8
0
10
0.238189
20
-2.189567
0
VERTEX
8
0
10
0.038189
20
-2.189567
0
VERTEX
8
0
10
0.038189
20
-2.239567
0
SEQEND
8
0
0
POLYLINE
8
0
66
1
40
0.008000
41
0.008000
0
VERTEX
8
0
10
0.238189
20
-2.214567
0
VERTEX
8
0
10
0.288189
20
-2.214567
0
SEQEND
8
0
0
TEXT
8
0
10
0.088189
20
-2.179567
40
0.048000
41
1.041667
1
R7
0
POLYLINE
8
0
66
1
40
0.008000
41
0.008000
0
VERTEX
8
0
10
0.141339
20
-2.066142
0
VERTEX
8
0
10
0.141339
20
-2.016142
0
SEQEND
8
0
0
POLYLINE
8
0
66
1
40
0.008000
41
0.008000
0
VERTEX
8
0
10
0.116339
20
-2.016142
0
VERTEX
8
0
10
0.166339
20
-2.016142
0
VERTEX
8
0
10
0.166339
20
-1.816142
0
VERTEX
8
0
10
0.116339
20
-1.816142
0
VERTEX
8
0
10
0.116339
20
-2.016142
0
SEQEND
8
0
0
POLYLINE
8
0
66
1
40
0.008000
41
0.008000
0
VERTEX
8
0
10
0.141339
20
-1.816142
0
VERTEX
8
0
10
0.141339
20
-1.766142
0
SEQEND
8
0
0
TEXT
8
0
10
0.106339
20
-1.966142
40
0.048000
41
1.041667
50
90.000000
1
R8
0
POLYLINE
8
0
66
1
40
0.008000
41
0.008000
0
VERTEX
8
0
10
0.435039
20
-1.867717
0
VERTEX
8
0
10
0.485039
20
-1.867717
0
VERTEX
8
0
10
0.485039
20
-2.067717
0
VERTEX
8
0
10
0.285039
20
-2.067717
0
VERTEX
8
0
10
0.285039
20
-1.867717
0
VERTEX
8
0
10
0.335039
20
-1.867717
0
SEQEND
8
0
0
POLYLINE
8
0
66
1
40
0.008000
41
0.008000
0
VERTEX
8
0
10
0.385039
20
-1.917717
0
VERTEX
8
0
10
0.395227
20
-1.916757
0
VERTEX
8
0
10
0.404665
20
-1.913982
0
VERTEX
8
0
10
0.413165
20
-1.909543
0
VERTEX
8
0
10
0.420539
20
-1.903591
0
VERTEX
8
0
10
0.426602
20
-1.896281
0
VERTEX
8
0
10
0.431165
20
-1.887763
0
VERTEX
8
0
10
0.434039
20
-1.878191
0
VERTEX
8
0
10
0.435039
20
-1.867717
0
SEQEND
8
0
0
POLYLINE
8
0
66
1
40
0.008000
41
0.008000
0
VERTEX
8
0
10
0.385039
20
-1.917717
0
VERTEX
8
0
10
0.374565
20
-1.916757
0
VERTEX
8
0
10
0.364993
20
-1.913982
0
VERTEX
8
0
10
0.356475
20
-1.909543
0
VERTEX
8
0
10
0.349165
20
-1.903591
0
VERTEX
8
0
10
0.343213
20
-1.896281
0
VERTEX
8
0
10
0.338774
20
-1.887763
0
VERTEX
8
0
10
0.335998
20
-1.878191
0
VERTEX
8
0
10
0.335039
20
-1.867717
0
SEQEND
8
0
0
TEXT
8
0
10
0.335039
20
-1.857717
40
0.048000
41
1.041667
1
U2
0
POLYLINE
8
0
66
1
40
0.008000
41
0.008000
0
VERTEX
8
0
10
-0.689764
20
0.311339
0
VERTEX
8
0
10
-0.589764
20
0.311339
0
VERTEX
8
0
10
-0.589764
20
0.591339
0
VERTEX
8
0
10
-0.689764
20
0.591339
0
VERTEX
8
0
10
-0.689764
20
0.311339
0
VERTEX
8
0
10
-0.739764
20
0.311339
0
VERTEX
8
0
10
-0.739764
20
0.591339
0
VERTEX
8
0
10
-0.689764
20
0.591339
0
SEQEND
8
0
0
POLYLINE
8
0
66
1
40
0.008000
41
0.008000
0
VERTEX
8
0
10
-0.689764
20
0.311339
0
VERTEX
8
0
10
-0.739764
20
0.361339
0
SEQEND
8
0
0
POLYLINE
8
0
66
1
40
0.008000
41
0.008000
0
VERTEX
8
0
10
-0.689764
20
0.361339
0
VERTEX
8
0
10
-0.739764
20
0.411339
0
SEQEND
8
0
0
POLYLINE
8
0
66
1
40
0.008000
41
0.008000
0
VERTEX
8
0
10
-0.689764
20
0.411339
0
VERTEX
8
0
10
-0.739764
20
0.461339
0
SEQEND
8
0
0
POLYLINE
8
0
66
1
40
0.008000
41
0.008000
0
VERTEX
8
0
10
-0.689764
20
0.461339
0
VERTEX
8
0
10
-0.739764
20
0.511339
0
SEQEND
8
0
0
POLYLINE
8
0
66
1
40
0.008000
41
0.008000
0
VERTEX
8
0
10
-0.689764
20
0.511339
0
VERTEX
8
0
10
-0.739764
20
0.561339
0
SEQEND
8
0
0
POLYLINE
8
0
66
1
40
0.008000
41
0.008000
0
VERTEX
8
0
10
-0.689764
20
0.561339
0
VERTEX
8
0
10
-0.719764
20
0.591339
0
SEQEND
8
0
0
TEXT
8
0
10
-0.749764
20
0.401339
40
0.048000
41
1.041667
50
90.000000
1
Q3
0
POLYLINE
8
0
66
1
40
0.008000
41
0.008000
0
VERTEX
8
0
10
-0.055937
20
0.586764
0
VERTEX
8
0
10
0.148063
20
0.586764
0
VERTEX
8
0
10
0.148063
20
0.691764
0
VERTEX
8
0
10
-0.055937
20
0.691764
0
VERTEX
8
0
10
-0.055937
20
0.586764
0
SEQEND
8
0
0
POLYLINE
8
0
66
1
40
0.008000
41
0.008000
0
VERTEX
8
0
10
0.116063
20
0.587764
0
VERTEX
8
0
10
0.116063
20
0.690764
0
SEQEND
8
0
0
POLYLINE
8
0
66
1
40
0.008000
41
0.008000
0
VERTEX
8
0
10
0.176063
20
0.639764
0
VERTEX
8
0
10
0.148063
20
0.639764
0
SEQEND
8
0
0
POLYLINE
8
0
66
1
40
0.008000
41
0.008000
0
VERTEX
8
0
10
-0.055937
20
0.639764
0
VERTEX
8
0
10
-0.083937
20
0.639764
0
SEQEND
8
0
0
TEXT
8
0
10
-0.003937
20
0.528764
40
0.048000
41
1.041667
1
D4
0
POLYLINE
8
0
66
1
40
0.008000
41
0.008000
0
VERTEX
8
0
10
-0.491339
20
0.541339
0
VERTEX
8
0
10
-0.441339
20
0.541339
0
SEQEND
8
0
0
POLYLINE
8
0
66
1
40
0.008000
41
0.008000
0
VERTEX
8
0
10
-0.441339
20
0.516339
0
VERTEX
8
0
10
-0.241339
20
0.516339
0
VERTEX
8
0
10
-0.241339
20
0.566339
0
VERTEX
8
0
10
-0.441339
20
0.566339
0
VERTEX
8
0
10
-0.441339
20
0.516339
0
SEQEND
8
0
0
POLYLINE
8
0
66
1
40
0.008000
41
0.008000
0
VERTEX
8
0
10
-0.241339
20
0.541339
0
VERTEX
8
0
10
-0.191339
20
0.541339
0
SEQEND
8
0
0
TEXT
8
0
10
-0.416339
20
0.576339
40
0.048000
41
1.041667
1
R12
0
POLYLINE
8
0
66
1
40
0.008000
41
0.008000
0
VERTEX
8
0
10
-0.449213
20
-2.067717
0
VERTEX
8
0
10
-0.459400
20
-2.064757
0
VERTEX
8
0
10
-0.468838
20
-2.056232
0
VERTEX
8
0
10
-0.477338
20
-2.042668
0
VERTEX
8
0
10
-0.484713
20
-2.024591
0
VERTEX
8
0
10
-0.490775
20
-2.002531
0
VERTEX
8
0
10
-0.495338
20
-1.977013
0
VERTEX
8
0
10
-0.498213
20
-1.948566
0
VERTEX
8
0
10
-0.499213
20
-1.917717
0
SEQEND
8
0
0
POLYLINE
8
0
66
1
40
0.008000
41
0.008000
0
VERTEX
8
0
10
-0.449213
20
-1.767717
0
VERTEX
8
0
10
-0.459400
20
-1.770717
0
VERTEX
8
0
10
-0.468838
20
-1.779342
0
VERTEX
8
0
10
-0.477338
20
-1.793029
0
VERTEX
8
0
10
-0.484713
20
-1.811217
0
VERTEX
8
0
10
-0.490775
20
-1.833342
0
VERTEX
8
0
10
-0.495338
20
-1.858842
0
VERTEX
8
0
10
-0.498213
20
-1.887154
0
VERTEX
8
0
10
-0.499213
20
-1.917717
0
SEQEND
8
0
0
POLYLINE
8
0
66
1
40
0.008000
41
0.008000
0
VERTEX
8
0
10
-0.449213
20
-1.767717
0
VERTEX
8
0
10
-0.439025
20
-1.770717
0
VERTEX
8
0
10
-0.429587
20
-1.779342
0
VERTEX
8
0
10
-0.421087
20
-1.793029
0
VERTEX
8
0
10
-0.413713
20
-1.811217
0
VERTEX
8
0
10
-0.407650
20
-1.833342
0
VERTEX
8
0
10
-0.403087
20
-1.858842
0
VERTEX
8
0
10
-0.400213
20
-1.887154
0
VERTEX
8
0
10
-0.399213
20
-1.917717
0
SEQEND
8
0
0
POLYLINE
8
0
66
1
40
0.008000
41
0.008000
0
VERTEX
8
0
10
-0.449213
20
-2.067717
0
VERTEX
8
0
10
-0.439025
20
-2.064757
0
VERTEX
8
0
10
-0.429587
20
-2.056232
0
VERTEX
8
0
10
-0.421087
20
-2.042668
0
VERTEX
8
0
10
-0.413713
20
-2.024591
0
VERTEX
8
0
10
-0.407650
20
-2.002531
0
VERTEX
8
0
10
-0.403087
20
-1.977013
0
VERTEX
8
0
10
-0.400213
20
-1.948566
0
VERTEX
8
0
10
-0.399213
20
-1.917717
0
SEQEND
8
0
0
TEXT
8
0
10
-0.509213
20
-1.967717
40
0.048000
41
1.041667
50
90.000000
1
C1
0
CIRCLE
8
0
10
-0.639764
20
1.230315
40
0.050000
0
CIRCLE
8
0
10
-0.639764
20
1.230315
40
0.025000
0
TEXT
8
0
10
-0.839764
20
1.290315
40
0.048000
41
1.041667
1
J-DIMMER
0
CIRCLE
8
0
10
0.541339
20
-1.722441
40
0.050000
0
CIRCLE
8
0
10
0.541339
20
-1.722441
40
0.025000
0
TEXT
8
0
10
0.391339
20
-1.662441
40
0.048000
41
1.041667
1
J-NULL
0
CIRCLE
8
0
10
-0.147638
20
0.442913
40
0.050000
0
CIRCLE
8
0
10
-0.147638
20
0.442913
40
0.025000
0
TEXT
8
0
10
-0.247638
20
0.502913
40
0.048000
41
1.041667
1
J-RL
0
CIRCLE
8
0
10
0.321063
20
0.147638
40
0.015000
0
POLYLINE
8
0
66
1
40
0.006000
41
0.006000
0
VERTEX
8
0
10
0.196063
20
0.292638
0
VERTEX
8
0
10
0.196063
20
-0.097362
0
VERTEX
8
0
10
0.296063
20
-0.097362
0
VERTEX
8
0
10
0.296063
20
0.292638
0
VERTEX
8
0
10
0.196063
20
0.292638
0
SEQEND
8
0
0
TEXT
8
0
10
0.400063
20
0.047638
40
0.048000
41
1.041667
50
90.000000
1
J3
0
INSERT
8
0
2
EPAD
10
0.246063
20
-0.344488
41
0.060000
42
0.060000
0
INSERT
8
0
2
EPAD
10
0.246063
20
-0.344488
41
0.060000
42
0.060000
0
INSERT
8
0
2
EPAD
10
0.246063
20
-0.444488
41
0.060000
42
0.060000
0
INSERT
8
0
2
EPAD
10
0.246063
20
-0.444488
41
0.060000
42
0.060000
0
INSERT
8
0
2
EPAD
10
0.049213
20
-0.639764
41
0.070000
42
0.070000
0
CIRCLE
8
0
10
0.049213
20
-0.639764
40
0.025000
0
INSERT
8
0
2
EPAD
10
0.049213
20
-0.239764
41
0.070000
42
0.070000
0
CIRCLE
8
0
10
0.049213
20
-0.239764
40
0.025000
0
INSERT
8
0
2
EPAD
10
-0.049213
20
-0.646063
41
0.070000
42
0.070000
0
CIRCLE
8
0
10
-0.049213
20
-0.646063
40
0.025000
0
INSERT
8
0
2
EPAD
10
-0.049213
20
-0.246063
41
0.070000
42
0.070000
0
CIRCLE
8
0
10
-0.049213
20
-0.246063
40
0.025000
0
INSERT
8
0
2
EPAD
10
-0.049213
20
-0.055512
41
0.070000
42
0.070000
0
CIRCLE
8
0
10
-0.049213
20
-0.055512
40
0.025000
0
INSERT
8
0
2
EPAD
10
-0.049213
20
0.344488
41
0.070000
42
0.070000
0
CIRCLE
8
0
10
-0.049213
20
0.344488
40
0.025000
0
INSERT
8
0
2
EPAD
10
-0.246063
20
-0.055512
41
0.070000
42
0.070000
0
CIRCLE
8
0
10
-0.246063
20
-0.055512
40
0.025000
0
INSERT
8
0
2
EPAD
10
-0.246063
20
0.344488
41
0.070000
42
0.070000
0
CIRCLE
8
0
10
-0.246063
20
0.344488
40
0.025000
0
INSERT
8
0
2
EPAD
10
-0.442913
20
-0.049213
41
0.070000
42
0.070000
0
CIRCLE
8
0
10
-0.442913
20
-0.049213
40
0.025000
0
INSERT
8
0
2
EPAD
10
-0.442913
20
0.350787
41
0.070000
42
0.070000
0
CIRCLE
8
0
10
-0.442913
20
0.350787
40
0.025000
0
INSERT
8
0
2
EPAD
10
-0.344488
20
-0.147638
41
0.070000
42
0.070000
0
CIRCLE
8
0
10
-0.344488
20
-0.147638
40
0.025000
0
INSERT
8
0
2
EPAD
10
0.055512
20
-0.147638
41
0.070000
42
0.070000
0
CIRCLE
8
0
10
0.055512
20
-0.147638
40
0.025000
0
INSERT
8
0
2
EPAD
10
-0.442913
20
-0.294488
41
0.060000
42
0.060000
0
CIRCLE
8
0
10
-0.442913
20
-0.294488
40
0.025000
0
INSERT
8
0
2
EPAD
10
-0.392913
20
-0.344488
41
0.060000
42
0.060000
0
CIRCLE
8
0
10
-0.392913
20
-0.344488
40
0.025000
0
INSERT
8
0
2
EPAD
10
-0.442913
20
-0.394488
41
0.060000
42
0.060000
0
CIRCLE
8
0
10
-0.442913
20
-0.394488
40
0.025000
0
INSERT
8
0
2
EPAD
10
-0.147638
20
-0.246063
41
0.070000
42
0.070000
0
CIRCLE
8
0
10
-0.147638
20
-0.246063
40
0.025000
0
INSERT
8
0
2
EPAD
10
-0.147638
20
-0.346063
41
0.070000
42
0.070000
0
CIRCLE
8
0
10
-0.147638
20
-0.346063
40
0.025000
0
INSERT
8
0
2
EPAD
10
-0.639764
20
-0.247638
41
0.070000
42
0.070000
0
CIRCLE
8
0
10
-0.639764
20
-0.247638
40
0.025000
0
INSERT
8
0
2
EPAD
10
-0.639764
20
-0.147638
41
0.070000
42
0.070000
0
CIRCLE
8
0
10
-0.639764
20
-0.147638
40
0.025000
0
INSERT
8
0
2
EPAD
10
-0.639764
20
0.049213
41
0.080000
42
0.080000
0
CIRCLE
8
0
10
-0.639764
20
0.049213
40
0.025000
0
INSERT
8
0
2
EPAD
10
0.738189
20
1.320866
41
0.060000
42
0.060000
0
INSERT
8
0
2
EPAD
10
0.738189
20
1.320866
41
0.060000
42
0.060000
0
INSERT
8
0
2
EPAD
10
0.738189
20
1.420866
41
0.060000
42
0.060000
0
INSERT
8
0
2
EPAD
10
0.738189
20
1.420866
41
0.060000
42
0.060000
0
INSERT
8
0
2
EPAD
10
0.738189
20
1.520866
41
0.060000
42
0.060000
0
INSERT
8
0
2
EPAD
10
0.738189
20
1.520866
41
0.060000
42
0.060000
0
INSERT
8
0
2
EPAD
10
0.738189
20
1.620866
41
0.060000
42
0.060000
0
INSERT
8
0
2
EPAD
10
0.738189
20
1.620866
41
0.060000
42
0.060000
0
INSERT
8
0
2
EPAD
10
0.738189
20
1.720866
41
0.060000
42
0.060000
0
INSERT
8
0
2
EPAD
10
0.738189
20
1.720866
41
0.060000
42
0.060000
0
INSERT
8
0
2
EPAD
10
0.738189
20
1.820866
41
0.060000
42
0.060000
0
INSERT
8
0
2
EPAD
10
0.738189
20
1.820866
41
0.060000
42
0.060000
0
INSERT
8
0
2
EPAD
10
-0.147638
20
0.925591
41
0.100000
42
0.100000
0
CIRCLE
8
0
10
-0.147638
20
0.925591
40
0.030000
0
INSERT
8
0
2
EPAD
10
0.151362
20
0.925591
41
0.100000
42
0.100000
0
CIRCLE
8
0
10
0.151362
20
0.925591
40
0.030000
0
INSERT
8
0
2
EPAD
10
-0.147638
20
1.725591
41
0.100000
42
0.100000
0
CIRCLE
8
0
10
-0.147638
20
1.725591
40
0.030000
0
INSERT
8
0
2
EPAD
10
0.152362
20
1.725591
41
0.100000
42
0.100000
0
CIRCLE
8
0
10
0.152362
20
1.725591
40
0.030000
0
INSERT
8
0
2
EPAD
10
-0.147638
20
1.525591
41
0.100000
42
0.100000
0
CIRCLE
8
0
10
-0.147638
20
1.525591
40
0.030000
0
INSERT
8
0
2
EPAD
10
0.152362
20
1.525591
41
0.100000
42
0.100000
0
CIRCLE
8
0
10
0.152362
20
1.525591
40
0.030000
0
INSERT
8
0
2
EPAD
10
-0.147638
20
1.925591
41
0.100000
42
0.100000
0
CIRCLE
8
0
10
-0.147638
20
1.925591
40
0.030000
0
INSERT
8
0
2
EPAD
10
0.152362
20
1.925591
41
0.100000
42
0.100000
0
CIRCLE
8
0
10
0.152362
20
1.925591
40
0.030000
0
INSERT
8
0
2
RPAD
10
0.342913
20
2.017717
41
0.080000
42
0.080000
50
0.000000
0
CIRCLE
8
0
10
0.342913
20
2.017717
40
0.025000
0
INSERT
8
0
2
RPAD
10
0.442913
20
2.017717
41
0.080000
42
0.080000
50
0.000000
0
CIRCLE
8
0
10
0.442913
20
2.017717
40
0.025000
0
INSERT
8
0
2
RPAD
10
0.542913
20
2.017717
41
0.080000
42
0.080000
50
0.000000
0
CIRCLE
8
0
10
0.542913
20
2.017717
40
0.025000
0
INSERT
8
0
2
EPAD
10
0.935039
20
0.935039
41
0.080000
42
0.080000
0
CIRCLE
8
0
10
0.935039
20
0.935039
40
0.025000
0
INSERT
8
0
2
EPAD
10
0.335039
20
0.935039
41
0.080000
42
0.080000
0
CIRCLE
8
0
10
0.335039
20
0.935039
40
0.025000
0
INSERT
8
0
2
EPAD
10
0.344488
20
1.325591
41
0.070000
42
0.070000
0
CIRCLE
8
0
10
0.344488
20
1.325591
40
0.025000
0
INSERT
8
0
2
EPAD
10
0.344488
20
1.525591
41
0.070000
42
0.070000
0
CIRCLE
8
0
10
0.344488
20
1.525591
40
0.025000
0
INSERT
8
0
2
RPAD
10
-0.644488
20
1.036614
41
0.050000
42
0.050000
50
-90.000000
0
CIRCLE
8
0
10
-0.644488
20
1.036614
40
0.030000
0
INSERT
8
0
2
EPAD
10
-0.644488
20
0.936614
41
0.050000
42
0.050000
0
CIRCLE
8
0
10
-0.644488
20
0.936614
40
0.030000
0
INSERT
8
0
2
EPAD
10
-0.644488
20
0.836614
41
0.050000
42
0.050000
0
CIRCLE
8
0
10
-0.644488
20
0.836614
40
0.030000
0
INSERT
8
0
2
EPAD
10
-0.344488
20
0.836614
41
0.050000
42
0.050000
0
CIRCLE
8
0
10
-0.344488
20
0.836614
40
0.030000
0
INSERT
8
0
2
EPAD
10
-0.344488
20
0.936614
41
0.050000
42
0.050000
0
CIRCLE
8
0
10
-0.344488
20
0.936614
40
0.030000
0
INSERT
8
0
2
EPAD
10
-0.344488
20
1.036614
41
0.050000
42
0.050000
0
CIRCLE
8
0
10
-0.344488
20
1.036614
40
0.030000
0
INSERT
8
0
2
EPAD
10
-0.055512
20
2.214567
41
0.070000
42
0.070000
0
CIRCLE
8
0
10
-0.055512
20
2.214567
40
0.025000
0
INSERT
8
0
2
EPAD
10
0.344488
20
2.214567
41
0.070000
42
0.070000
0
CIRCLE
8
0
10
0.344488
20
2.214567
40
0.025000
0
INSERT
8
0
2
EPAD
10
-0.442913
20
2.017717
41
0.070000
42
0.070000
0
CIRCLE
8
0
10
-0.442913
20
2.017717
40
0.025000
0
INSERT
8
0
2
EPAD
10
-0.442913
20
1.617717
41
0.070000
42
0.070000
0
CIRCLE
8
0
10
-0.442913
20
1.617717
40
0.025000
0
INSERT
8
0
2
RPAD
10
-0.350787
20
-1.131890
41
0.050000
42
0.050000
50
-90.000000
0
CIRCLE
8
0
10
-0.350787
20
-1.131890
40
0.030000
0
INSERT
8
0
2
EPAD
10
-0.350787
20
-1.331890
41
0.050000
42
0.050000
0
CIRCLE
8
0
10
-0.350787
20
-1.331890
40
0.030000
0
INSERT
8
0
2
EPAD
10
-0.050787
20
-1.131890
41
0.050000
42
0.050000
0
CIRCLE
8
0
10
-0.050787
20
-1.131890
40
0.030000
0
INSERT
8
0
2
EPAD
10
-0.050787
20
-1.331890
41
0.050000
42
0.050000
0
CIRCLE
8
0
10
-0.050787
20
-1.331890
40
0.030000
0
INSERT
8
0
2
EPAD
10
-0.646063
20
-1.531890
41
0.070000
42
0.070000
0
CIRCLE
8
0
10
-0.646063
20
-1.531890
40
0.025000
0
INSERT
8
0
2
EPAD
10
-0.646063
20
-1.131890
41
0.070000
42
0.070000
0
CIRCLE
8
0
10
-0.646063
20
-1.131890
40
0.025000
0
INSERT
8
0
2
EPAD
10
-0.744488
20
-0.836614
41
0.070000
42
0.070000
0
CIRCLE
8
0
10
-0.744488
20
-0.836614
40
0.025000
0
INSERT
8
0
2
EPAD
10
-0.344488
20
-0.836614
41
0.070000
42
0.070000
0
CIRCLE
8
0
10
-0.344488
20
-0.836614
40
0.025000
0
INSERT
8
0
2
EPAD
10
-0.153937
20
-0.836614
41
0.070000
42
0.070000
0
CIRCLE
8
0
10
-0.153937
20
-0.836614
40
0.025000
0
INSERT
8
0
2
EPAD
10
0.246063
20
-0.836614
41
0.070000
42
0.070000
0
CIRCLE
8
0
10
0.246063
20
-0.836614
40
0.025000
0
INSERT
8
0
2
EPAD
10
-0.646063
20
-1.624016
41
0.070000
42
0.070000
0
CIRCLE
8
0
10
-0.646063
20
-1.624016
40
0.025000
0
INSERT
8
0
2
EPAD
10
-0.646063
20
-2.024016
41
0.070000
42
0.070000
0
CIRCLE
8
0
10
-0.646063
20
-2.024016
40
0.025000
0
INSERT
8
0
2
EPAD
10
-0.350787
20
-1.525591
41
0.070000
42
0.070000
0
CIRCLE
8
0
10
-0.350787
20
-1.525591
40
0.025000
0
INSERT
8
0
2
EPAD
10
0.049213
20
-1.525591
41
0.070000
42
0.070000
0
CIRCLE
8
0
10
0.049213
20
-1.525591
40
0.025000
0
INSERT
8
0
2
EPAD
10
-0.103937
20
-1.770866
41
0.060000
42
0.060000
0
CIRCLE
8
0
10
-0.103937
20
-1.770866
40
0.025000
0
INSERT
8
0
2
EPAD
10
-0.153937
20
-1.820866
41
0.060000
42
0.060000
0
CIRCLE
8
0
10
-0.153937
20
-1.820866
40
0.025000
0
INSERT
8
0
2
EPAD
10
-0.203937
20
-1.770866
41
0.060000
42
0.060000
0
CIRCLE
8
0
10
-0.203937
20
-1.770866
40
0.025000
0
INSERT
8
0
2
EPAD
10
-0.103937
20
-2.017717
41
0.060000
42
0.060000
0
CIRCLE
8
0
10
-0.103937
20
-2.017717
40
0.025000
0
INSERT
8
0
2
EPAD
10
-0.153937
20
-2.067717
41
0.060000
42
0.060000
0
CIRCLE
8
0
10
-0.153937
20
-2.067717
40
0.025000
0
INSERT
8
0
2
EPAD
10
-0.203937
20
-2.017717
41
0.060000
42
0.060000
0
CIRCLE
8
0
10
-0.203937
20
-2.017717
40
0.025000
0
INSERT
8
0
2
EPAD
10
-0.652362
20
-2.214567
41
0.070000
42
0.070000
0
CIRCLE
8
0
10
-0.652362
20
-2.214567
40
0.025000
0
INSERT
8
0
2
EPAD
10
-0.252362
20
-2.214567
41
0.070000
42
0.070000
0
CIRCLE
8
0
10
-0.252362
20
-2.214567
40
0.025000
0
INSERT
8
0
2
EPAD
10
-0.061811
20
-2.214567
41
0.070000
42
0.070000
0
CIRCLE
8
0
10
-0.061811
20
-2.214567
40
0.025000
0
INSERT
8
0
2
EPAD
10
0.338189
20
-2.214567
41
0.070000
42
0.070000
0
CIRCLE
8
0
10
0.338189
20
-2.214567
40
0.025000
0
INSERT
8
0
2
EPAD
10
0.141339
20
-2.116142
41
0.070000
42
0.070000
0
CIRCLE
8
0
10
0.141339
20
-2.116142
40
0.025000
0
INSERT
8
0
2
EPAD
10
0.141339
20
-1.716142
41
0.070000
42
0.070000
0
CIRCLE
8
0
10
0.141339
20
-1.716142
40
0.025000
0
INSERT
8
0
2
RPAD
10
0.235039
20
-1.917717
41
0.050000
42
0.050000
50
-90.000000
0
CIRCLE
8
0
10
0.235039
20
-1.917717
40
0.030000
0
INSERT
8
0
2
EPAD
10
0.235039
20
-2.017717
41
0.050000
42
0.050000
0
CIRCLE
8
0
10
0.235039
20
-2.017717
40
0.030000
0
INSERT
8
0
2
EPAD
10
0.535039
20
-2.017717
41
0.050000
42
0.050000
0
CIRCLE
8
0
10
0.535039
20
-2.017717
40
0.030000
0
INSERT
8
0
2
EPAD
10
0.535039
20
-1.917717
41
0.050000
42
0.050000
0
CIRCLE
8
0
10
0.535039
20
-1.917717
40
0.030000
0
INSERT
8
0
2
RPAD
10
-0.639764
20
0.361339
41
0.075000
42
0.075000
50
-270.000000
0
CIRCLE
8
0
10
-0.639764
20
0.361339
40
0.025000
0
INSERT
8
0
2
RPAD
10
-0.639764
20
0.451339
41
0.075000
42
0.075000
50
-270.000000
0
CIRCLE
8
0
10
-0.639764
20
0.451339
40
0.025000
0
INSERT
8
0
2
RPAD
10
-0.639764
20
0.541339
41
0.075000
42
0.075000
50
-270.000000
0
CIRCLE
8
0
10
-0.639764
20
0.541339
40
0.025000
0
INSERT
8
0
2
EPAD
10
-0.153937
20
0.639764
41
0.090000
42
0.090000
0
CIRCLE
8
0
10
-0.153937
20
0.639764
40
0.025000
0
INSERT
8
0
2
EPAD
10
0.246063
20
0.639764
41
0.090000
42
0.090000
0
CIRCLE
8
0
10
0.246063
20
0.639764
40
0.025000
0
INSERT
8
0
2
EPAD
10
-0.541339
20
0.541339
41
0.070000
42
0.070000
0
CIRCLE
8
0
10
-0.541339
20
0.541339
40
0.025000
0
INSERT
8
0
2
EPAD
10
-0.141339
20
0.541339
41
0.070000
42
0.070000
0
CIRCLE
8
0
10
-0.141339
20
0.541339
40
0.025000
0
INSERT
8
0
2
EPAD
10
-0.449213
20
-2.017717
41
0.070000
42
0.070000
0
CIRCLE
8
0
10
-0.449213
20
-2.017717
40
0.025000
0
INSERT
8
0
2
EPAD
10
-0.449213
20
-1.817717
41
0.070000
42
0.070000
0
CIRCLE
8
0
10
-0.449213
20
-1.817716
40
0.025000
0
INSERT
8
0
2
EPAD
10
-0.639764
20
1.230315
41
0.080000
42
0.080000
0
CIRCLE
8
0
10
-0.639764
20
1.230315
40
0.025000
0
INSERT
8
0
2
EPAD
10
0.541339
20
-1.722441
41
0.080000
42
0.080000
0
CIRCLE
8
0
10
0.541339
20
-1.722441
40
0.025000
0
INSERT
8
0
2
EPAD
10
-0.147638
20
0.442913
41
0.080000
42
0.080000
0
CIRCLE
8
0
10
-0.147638
20
0.442913
40
0.025000
0
INSERT
8
0
2
EPAD
10
0.246063
20
0.147638
41
0.060000
42
0.060000
0
INSERT
8
0
2
EPAD
10
0.246063
20
0.147638
41
0.060000
42
0.060000
0
INSERT
8
0
2
EPAD
10
0.246063
20
0.047638
41
0.060000
42
0.060000
0
INSERT
8
0
2
EPAD
10
0.246063
20
0.047638
41
0.060000
42
0.060000
0
POLYLINE
8
0
66
1
40
0.008000
41
0.008000
0
VERTEX
8
0
10
-1.033465
20
-2.411417
0
VERTEX
8
0
10
1.033465
20
-2.411417
0
VERTEX
8
0
10
1.033465
20
2.411417
0
VERTEX
8
0
10
-1.033465
20
2.411417
0
VERTEX
8
0
10
-1.033465
20
-2.411417
0
SEQEND
8
0
0
CIRCLE
8
0
10
0.321063
20
-0.344488
40
0.015000
0
POLYLINE
8
0
66
1
40
0.006000
41
0.006000
0
VERTEX
8
0
10
0.196063
20
-0.199488
0
VERTEX
8
0
10
0.196063
20
-0.589488
0
VERTEX
8
0
10
0.296063
20
-0.589488
0
VERTEX
8
0
10
0.296063
20
-0.199488
0
VERTEX
8
0
10
0.196063
20
-0.199488
0
SEQEND
8
0
0
TEXT
8
0
10
0.400063
20
-0.619488
40
0.048000
41
1.041667
50
90.000000
1
J-IN-TAHO
0
POLYLINE
8
0
66
1
40
0.008000
41
0.008000
0
VERTEX
8
0
10
0.049213
20
-0.589764
0
VERTEX
8
0
10
0.049213
20
-0.539764
0
SEQEND
8
0
0
POLYLINE
8
0
66
1
40
0.008000
41
0.008000
0
VERTEX
8
0
10
0.024213
20
-0.539764
0
VERTEX
8
0
10
0.074213
20
-0.539764
0
VERTEX
8
0
10
0.074213
20
-0.339764
0
VERTEX
8
0
10
0.024213
20
-0.339764
0
VERTEX
8
0
10
0.024213
20
-0.539764
0
SEQEND
8
0
0
POLYLINE
8
0
66
1
40
0.008000
41
0.008000
0
VERTEX
8
0
10
0.049213
20
-0.339764
0
VERTEX
8
0
10
0.049213
20
-0.289764
0
SEQEND
8
0
0
TEXT
8
0
10
0.014213
20
-0.489764
40
0.048000
41
1.041667
50
90.000000
1
R1
0
POLYLINE
8
0
66
1
40
0.008000
41
0.008000
0
VERTEX
8
0
10
-0.085213
20
-0.521063
0
VERTEX
8
0
10
-0.013213
20
-0.521063
0
VERTEX
8
0
10
-0.013213
20
-0.371063
0
VERTEX
8
0
10
-0.085213
20
-0.371063
0
VERTEX
8
0
10
-0.085213
20
-0.521063
0
SEQEND
8
0
0
POLYLINE
8
0
66
1
40
0.008000
41
0.008000
0
VERTEX
8
0
10
-0.014213
20
-0.396063
0
VERTEX
8
0
10
-0.084213
20
-0.396063
0
SEQEND
8
0
0
POLYLINE
8
0
66
1
40
0.008000
41
0.008000
0
VERTEX
8
0
10
-0.049213
20
-0.521063
0
VERTEX
8
0
10
-0.049213
20
-0.586063
0
SEQEND
8
0
0
POLYLINE
8
0
66
1
40
0.008000
41
0.008000
0
VERTEX
8
0
10
-0.049213
20
-0.371063
0
VERTEX
8
0
10
-0.049213
20
-0.306063
0
SEQEND
8
0
0
TEXT
8
0
10
0.044787
20
-0.496063
40
0.048000
41
1.041667
50
90.000000
1
D2
0
POLYLINE
8
0
66
1
40
0.008000
41
0.008000
0
VERTEX
8
0
10
-0.085213
20
0.069488
0
VERTEX
8
0
10
-0.013213
20
0.069488
0
VERTEX
8
0
10
-0.013213
20
0.219488
0
VERTEX
8
0
10
-0.085213
20
0.219488
0
VERTEX
8
0
10
-0.085213
20
0.069488
0
SEQEND
8
0
0
POLYLINE
8
0
66
1
40
0.008000
41
0.008000
0
VERTEX
8
0
10
-0.014213
20
0.194488
0
VERTEX
8
0
10
-0.084213
20
0.194488
0
SEQEND
8
0
0
POLYLINE
8
0
66
1
40
0.008000
41
0.008000
0
VERTEX
8
0
10
-0.049213
20
0.069488
0
VERTEX
8
0
10
-0.049213
20
0.004488
0
SEQEND
8
0
0
POLYLINE
8
0
66
1
40
0.008000
41
0.008000
0
VERTEX
8
0
10
-0.049213
20
0.219488
0
VERTEX
8
0
10
-0.049213
20
0.284488
0
SEQEND
8
0
0
TEXT
8
0
10
0.044787
20
0.094488
40
0.048000
41
1.041667
50
90.000000
1
D3
0
POLYLINE
8
0
66
1
40
0.008000
41
0.008000
0
VERTEX
8
0
10
-0.246063
20
-0.005512
0
VERTEX
8
0
10
-0.246063
20
0.044488
0
SEQEND
8
0
0
POLYLINE
8
0
66
1
40
0.008000
41
0.008000
0
VERTEX
8
0
10
-0.271063
20
0.044488
0
VERTEX
8
0
10
-0.221063
20
0.044488
0
VERTEX
8
0
10
-0.221063
20
0.244488
0
VERTEX
8
0
10
-0.271063
20
0.244488
0
VERTEX
8
0
10
-0.271063
20
0.044488
0
SEQEND
8
0
0
POLYLINE
8
0
66
1
40
0.008000
41
0.008000
0
VERTEX
8
0
10
-0.246063
20
0.244488
0
VERTEX
8
0
10
-0.246063
20
0.294488
0
SEQEND
8
0
0
TEXT
8
0
10
-0.281063
20
0.069488
40
0.048000
41
1.041667
50
90.000000
1
R14
0
POLYLINE
8
0
66
1
40
0.008000
41
0.008000
0
VERTEX
8
0
10
-0.442913
20
0.000787
0
VERTEX
8
0
10
-0.442913
20
0.050787
0
SEQEND
8
0
0
POLYLINE
8
0
66
1
40
0.008000
41
0.008000
0
VERTEX
8
0
10
-0.467913
20
0.050787
0
VERTEX
8
0
10
-0.417913
20
0.050787
0
VERTEX
8
0
10
-0.417913
20
0.250787
0
VERTEX
8
0
10
-0.467913
20
0.250787
0
VERTEX
8
0
10
-0.467913
20
0.050787
0
SEQEND
8
0
0
POLYLINE
8
0
66
1
40
0.008000
41
0.008000
0
VERTEX
8
0
10
-0.442913
20
0.250787
0
VERTEX
8
0
10
-0.442913
20
0.300787
0
SEQEND
8
0
0
TEXT
8
0
10
-0.477913
20
0.075787
40
0.048000
41
1.041667
50
90.000000
1
R15
0
POLYLINE
8
0
66
1
40
0.008000
41
0.008000
0
VERTEX
8
0
10
-0.294488
20
-0.147638
0
VERTEX
8
0
10
-0.244488
20
-0.147638
0
SEQEND
8
0
0
POLYLINE
8
0
66
1
40
0.008000
41
0.008000
0
VERTEX
8
0
10
-0.244488
20
-0.172638
0
VERTEX
8
0
10
-0.044488
20
-0.172638
0
VERTEX
8
0
10
-0.044488
20
-0.122638
0
VERTEX
8
0
10
-0.244488
20
-0.122638
0
VERTEX
8
0
10
-0.244488
20
-0.172638
0
SEQEND
8
0
0
POLYLINE
8
0
66
1
40
0.008000
41
0.008000
0
VERTEX
8
0
10
-0.044488
20
-0.147638
0
VERTEX
8
0
10
0.005512
20
-0.147638
0
SEQEND
8
0
0
TEXT
8
0
10
-0.219488
20
-0.112638
40
0.048000
41
1.041667
1
R13
0
POLYLINE
8
0
66
1
40
0.008000
41
0.008000
0
VERTEX
8
0
10
-0.492913
20
-0.269488
0
VERTEX
8
0
10
-0.492913
20
-0.419488
0
SEQEND
8
0
0
POLYLINE
8
0
66
1
40
0.008000
41
0.008000
0
VERTEX
8
0
10
-0.442913
20
-0.249488
0
VERTEX
8
0
10
-0.452239
20
-0.250348
0
VERTEX
8
0
10
-0.461273
20
-0.252613
0
VERTEX
8
0
10
-0.477288
20
-0.259488
0
VERTEX
8
0
10
-0.492913
20
-0.269488
0
SEQEND
8
0
0
POLYLINE
8
0
66
1
40
0.008000
41
0.008000
0
VERTEX
8
0
10
-0.442913
20
-0.249488
0
VERTEX
8
0
10
-0.422467
20
-0.249828
0
VERTEX
8
0
10
-0.403558
20
-0.254313
0
VERTEX
8
0
10
-0.386554
20
-0.262518
0
VERTEX
8
0
10
-0.371820
20
-0.274019
0
VERTEX
8
0
10
-0.359722
20
-0.288392
0
VERTEX
8
0
10
-0.350628
20
-0.305211
0
VERTEX
8
0
10
-0.344903
20
-0.324051
0
VERTEX
8
0
10
-0.342913
20
-0.344488
0
SEQEND
8
0
0
POLYLINE
8
0
66
1
40
0.008000
41
0.008000
0
VERTEX
8
0
10
-0.442913
20
-0.439488
0
VERTEX
8
0
10
-0.452239
20
-0.438629
0
VERTEX
8
0
10
-0.461273
20
-0.436363
0
VERTEX
8
0
10
-0.477288
20
-0.429488
0
VERTEX
8
0
10
-0.492913
20
-0.419488
0
SEQEND
8
0
0
POLYLINE
8
0
66
1
40
0.008000
41
0.008000
0
VERTEX
8
0
10
-0.442913
20
-0.439488
0
VERTEX
8
0
10
-0.422467
20
-0.439149
0
VERTEX
8
0
10
-0.403558
20
-0.434664
0
VERTEX
8
0
10
-0.386554
20
-0.426458
0
VERTEX
8
0
10
-0.371820
20
-0.414957
0
VERTEX
8
0
10
-0.359722
20
-0.400584
0
VERTEX
8
0
10
-0.350628
20
-0.383765
0
VERTEX
8
0
10
-0.344903
20
-0.364925
0
VERTEX
8
0
10
-0.342913
20
-0.344488
0
SEQEND
8
0
0
TEXT
8
0
10
-0.284913
20
-0.394488
40
0.048000
41
1.041667
50
90.000000
1
Q4
0
POLYLINE
8
0
66
1
40
0.008000
41
0.008000
0
VERTEX
8
0
10
-0.147638
20
-0.196063
0
VERTEX
8
0
10
-0.137450
20
-0.198063
0
VERTEX
8
0
10
-0.128013
20
-0.203813
0
VERTEX
8
0
10
-0.119513
20
-0.212938
0
VERTEX
8
0
10
-0.112138
20
-0.225063
0
VERTEX
8
0
10
-0.106075
20
-0.239813
0
VERTEX
8
0
10
-0.101513
20
-0.256813
0
VERTEX
8
0
10
-0.098638
20
-0.275688
0
VERTEX
8
0
10
-0.097638
20
-0.296063
0
SEQEND
8
0
0
POLYLINE
8
0
66
1
40
0.008000
41
0.008000
0
VERTEX
8
0
10
-0.147638
20
-0.396063
0
VERTEX
8
0
10
-0.137450
20
-0.394063
0
VERTEX
8
0
10
-0.128013
20
-0.388313
0
VERTEX
8
0
10
-0.119513
20
-0.379188
0
VERTEX
8
0
10
-0.112138
20
-0.367063
0
VERTEX
8
0
10
-0.106075
20
-0.352313
0
VERTEX
8
0
10
-0.101513
20
-0.335313
0
VERTEX
8
0
10
-0.098638
20
-0.316438
0
VERTEX
8
0
10
-0.097638
20
-0.296063
0
SEQEND
8
0
0
POLYLINE
8
0
66
1
40
0.008000
41
0.008000
0
VERTEX
8
0
10
-0.147638
20
-0.196063
0
VERTEX
8
0
10
-0.157825
20
-0.198063
0
VERTEX
8
0
10
-0.167263
20
-0.203813
0
VERTEX
8
0
10
-0.175763
20
-0.212938
0
VERTEX
8
0
10
-0.183138
20
-0.225063
0
VERTEX
8
0
10
-0.189200
20
-0.239813
0
VERTEX
8
0
10
-0.193763
20
-0.256813
0
VERTEX
8
0
10
-0.196638
20
-0.275688
0
VERTEX
8
0
10
-0.197638
20
-0.296063
0
SEQEND
8
0
0
POLYLINE
8
0
66
1
40
0.008000
41
0.008000
0
VERTEX
8
0
10
-0.147638
20
-0.396063
0
VERTEX
8
0
10
-0.157825
20
-0.394063
0
VERTEX
8
0
10
-0.167263
20
-0.388313
0
VERTEX
8
0
10
-0.175763
20
-0.379188
0
VERTEX
8
0
10
-0.183138
20
-0.367063
0
VERTEX
8
0
10
-0.189200
20
-0.352313
0
VERTEX
8
0
10
-0.193763
20
-0.335313
0
VERTEX
8
0
10
-0.196638
20
-0.316438
0
VERTEX
8
0
10
-0.197638
20
-0.296063
0
SEQEND
8
0
0
TEXT
8
0
10
-0.039638
20
-0.346063
40
0.048000
41
1.041667
50
90.000000
1
C3
0
POLYLINE
8
0
66
1
40
0.008000
41
0.008000
0
VERTEX
8
0
10
-0.639764
20
-0.297638
0
VERTEX
8
0
10
-0.649951
20
-0.295638
0
VERTEX
8
0
10
-0.659389
20
-0.289888
0
VERTEX
8
0
10
-0.667889
20
-0.280763
0
VERTEX
8
0
10
-0.675264
20
-0.268638
0
VERTEX
8
0
10
-0.681326
20
-0.253888
0
VERTEX
8
0
10
-0.685889
20
-0.236888
0
VERTEX
8
0
10
-0.688764
20
-0.218013
0
VERTEX
8
0
10
-0.689764
20
-0.197638
0
SEQEND
8
0
0
POLYLINE
8
0
66
1
40
0.008000
41
0.008000
0
VERTEX
8
0
10
-0.639764
20
-0.097638
0
VERTEX
8
0
10
-0.649951
20
-0.099638
0
VERTEX
8
0
10
-0.659389
20
-0.105388
0
VERTEX
8
0
10
-0.667889
20
-0.114513
0
VERTEX
8
0
10
-0.675264
20
-0.126638
0
VERTEX
8
0
10
-0.681326
20
-0.141388
0
VERTEX
8
0
10
-0.685889
20
-0.158388
0
VERTEX
8
0
10
-0.688764
20
-0.177263
0
VERTEX
8
0
10
-0.689764
20
-0.197638
0
SEQEND
8
0
0
POLYLINE
8
0
66
1
40
0.008000
41
0.008000
0
VERTEX
8
0
10
-0.639764
20
-0.297638
0
VERTEX
8
0
10
-0.629576
20
-0.295638
0
VERTEX
8
0
10
-0.620139
20
-0.289888
0
VERTEX
8
0
10
-0.611639
20
-0.280763
0
VERTEX
8
0
10
-0.604264
20
-0.268638
0
VERTEX
8
0
10
-0.598201
20
-0.253888
0
VERTEX
8
0
10
-0.593639
20
-0.236888
0
VERTEX
8
0
10
-0.590764
20
-0.218013
0
VERTEX
8
0
10
-0.589764
20
-0.197638
0
SEQEND
8
0
0
POLYLINE
8
0
66
1
40
0.008000
41
0.008000
0
VERTEX
8
0
10
-0.639764
20
-0.097638
0
VERTEX
8
0
10
-0.629576
20
-0.099638
0
VERTEX
8
0
10
-0.620139
20
-0.105388
0
VERTEX
8
0
10
-0.611639
20
-0.114513
0
VERTEX
8
0
10
-0.604264
20
-0.126638
0
VERTEX
8
0
10
-0.598201
20
-0.141388
0
VERTEX
8
0
10
-0.593639
20
-0.158388
0
VERTEX
8
0
10
-0.590764
20
-0.177263
0
VERTEX
8
0
10
-0.589764
20
-0.197638
0
SEQEND
8
0
0
TEXT
8
0
10
-0.699764
20
-0.247638
40
0.048000
41
1.041667
50
90.000000
1
C4
0
CIRCLE
8
0
10
-0.639764
20
0.049213
40
0.050000
0
CIRCLE
8
0
10
-0.639764
20
0.049213
40
0.025000
0
TEXT
8
0
10
-0.699764
20
-0.100787
40
0.048000
41
1.041667
50
90.000000
1
J-TAHO
0
CIRCLE
8
0
10
0.663189
20
1.320866
40
0.015000
0
POLYLINE
8
0
66
1
40
0.006000
41
0.006000
0
VERTEX
8
0
10
0.788189
20
1.175866
0
VERTEX
8
0
10
0.788189
20
1.965866
0
VERTEX
8
0
10
0.688189
20
1.965866
0
VERTEX
8
0
10
0.688189
20
1.175866
0
VERTEX
8
0
10
0.788189
20
1.175866
0
SEQEND
8
0
0
TEXT
8
0
10
0.632189
20
1.520866
40
0.048000
41
1.041667
50
90.000000
1
J5
0
POLYLINE
8
0
66
1
40
0.008000
41
0.008000
0
VERTEX
8
0
10
-0.222638
20
0.816850
0
VERTEX
8
0
10
0.227362
20
0.816850
0
VERTEX
8
0
10
0.227362
20
2.007795
0
VERTEX
8
0
10
-0.222638
20
2.007795
0
VERTEX
8
0
10
-0.222638
20
0.816850
0
SEQEND
8
0
0
TEXT
8
0
10
-0.232638
20
1.337323
40
0.048000
41
1.041667
50
90.000000
1
RL1
0
POLYLINE
8
0
66
1
40
0.008000
41
0.008000
0
VERTEX
8
0
10
0.292913
20
1.967717
0
VERTEX
8
0
10
0.592913
20
1.967717
0
VERTEX
8
0
10
0.592913
20
2.067717
0
VERTEX
8
0
10
0.292913
20
2.067717
0
VERTEX
8
0
10
0.292913
20
1.967717
0
SEQEND
8
0
0
POLYLINE
8
0
66
1
40
0.008000
41
0.008000
0
VERTEX
8
0
10
0.292913
20
2.067717
0
VERTEX
8
0
10
0.292913
20
2.117717
0
VERTEX
8
0
10
0.592913
20
2.117717
0
VERTEX
8
0
10
0.592913
20
2.067717
0
SEQEND
8
0
0
POLYLINE
8
0
66
1
40
0.008000
41
0.008000
0
VERTEX
8
0
10
0.292913
20
2.067717
0
VERTEX
8
0
10
0.342913
20
2.117717
0
SEQEND
8
0
0
POLYLINE
8
0
66
1
40
0.008000
41
0.008000
0
VERTEX
8
0
10
0.342913
20
2.067717
0
VERTEX
8
0
10
0.392913
20
2.117717
0
SEQEND
8
0
0
POLYLINE
8
0
66
1
40
0.008000
41
0.008000
0
VERTEX
8
0
10
0.392913
20
2.067717
0
VERTEX
8
0
10
0.442913
20
2.117717
0
SEQEND
8
0
0
POLYLINE
8
0
66
1
40
0.008000
41
0.008000
0
VERTEX
8
0
10
0.442913
20
2.067717
0
VERTEX
8
0
10
0.492913
20
2.117717
0
SEQEND
8
0
0
POLYLINE
8
0
66
1
40
0.008000
41
0.008000
0
VERTEX
8
0
10
0.492913
20
2.067717
0
VERTEX
8
0
10
0.542913
20
2.117717
0
SEQEND
8
0
0
POLYLINE
8
0
66
1
40
0.008000
41
0.008000
0
VERTEX
8
0
10
0.542913
20
2.067717
0
VERTEX
8
0
10
0.592913
20
2.117717
0
SEQEND
8
0
0
TEXT
8
0
10
0.392913
20
2.127717
40
0.048000
41
1.041667
1
U4
0
POLYLINE
8
0
66
1
40
0.008000
41
0.008000
0
VERTEX
8
0
10
0.885039
20
0.935039
0
VERTEX
8
0
10
0.835039
20
0.935039
0
SEQEND
8
0
0
POLYLINE
8
0
66
1
40
0.008000
41
0.008000
0
VERTEX
8
0
10
0.435039
20
0.885039
0
VERTEX
8
0
10
0.835039
20
0.885039
0
VERTEX
8
0
10
0.835039
20
0.985039
0
VERTEX
8
0
10
0.435039
20
0.985039
0
VERTEX
8
0
10
0.435039
20
0.885039
0
SEQEND
8
0
0
POLYLINE
8
0
66
1
40
0.008000
41
0.008000
0
VERTEX
8
0
10
0.435039
20
0.935039
0
VERTEX
8
0
10
0.385039
20
0.935039
0
SEQEND
8
0
0
TEXT
8
0
10
0.560039
20
0.827039
40
0.048000
41
1.041667
1
R11
0
POLYLINE
8
0
66
1
40
0.008000
41
0.008000
0
VERTEX
8
0
10
0.344488
20
1.275591
0
VERTEX
8
0
10
0.334301
20
1.278550
0
VERTEX
8
0
10
0.324863
20
1.287075
0
VERTEX
8
0
10
0.316363
20
1.300639
0
VERTEX
8
0
10
0.308988
20
1.318716
0
VERTEX
8
0
10
0.302926
20
1.340776
0
VERTEX
8
0
10
0.298363
20
1.366294
0
VERTEX
8
0
10
0.295488
20
1.394741
0
VERTEX
8
0
10
0.294488
20
1.425591
0
SEQEND
8
0
0
POLYLINE
8
0
66
1
40
0.008000
41
0.008000
0
VERTEX
8
0
10
0.344488
20
1.575591
0
VERTEX
8
0
10
0.334301
20
1.572591
0
VERTEX
8
0
10
0.324863
20
1.563965
0
VERTEX
8
0
10
0.316363
20
1.550278
0
VERTEX
8
0
10
0.308988
20
1.532091
0
VERTEX
8
0
10
0.302926
20
1.509965
0
VERTEX
8
0
10
0.298363
20
1.484465
0
VERTEX
8
0
10
0.295488
20
1.456153
0
VERTEX
8
0
10
0.294488
20
1.425591
0
SEQEND
8
0
0
POLYLINE
8
0
66
1
40
0.008000
41
0.008000
0
VERTEX
8
0
10
0.344488
20
1.575591
0
VERTEX
8
0
10
0.354676
20
1.572591
0
VERTEX
8
0
10
0.364113
20
1.563965
0
VERTEX
8
0
10
0.372613
20
1.550278
0
VERTEX
8
0
10
0.379988
20
1.532091
0
VERTEX
8
0
10
0.386051
20
1.509965
0
VERTEX
8
0
10
0.390613
20
1.484465
0
VERTEX
8
0
10
0.393488
20
1.456153
0
VERTEX
8
0
10
0.394488
20
1.425591
0
SEQEND
8
0
0
POLYLINE
8
0
66
1
40
0.008000
41
0.008000
0
VERTEX
8
0
10
0.344488
20
1.275591
0
VERTEX
8
0
10
0.354676
20
1.278550
0
VERTEX
8
0
10
0.364113
20
1.287075
0
VERTEX
8
0
10
0.372613
20
1.300639
0
VERTEX
8
0
10
0.379988
20
1.318716
0
VERTEX
8
0
10
0.386051
20
1.340776
0
VERTEX
8
0
10
0.390613
20
1.366294
0
VERTEX
8
0
10
0.393488
20
1.394741
0
VERTEX
8
0
10
0.394488
20
1.425591
0
SEQEND
8
0
0
TEXT
8
0
10
0.284488
20
1.375591
40
0.048000
41
1.041667
50
90.000000
1
C2
0
POLYLINE
8
0
66
1
40
0.008000
41
0.008000
0
VERTEX
8
0
10
-0.594488
20
1.086614
0
VERTEX
8
0
10
-0.544488
20
1.086614
0
SEQEND
8
0
0
POLYLINE
8
0
66
1
40
0.008000
41
0.008000
0
VERTEX
8
0
10
-0.494488
20
1.036614
0
VERTEX
8
0
10
-0.484301
20
1.037573
0
VERTEX
8
0
10
-0.474863
20
1.040348
0
VERTEX
8
0
10
-0.466363
20
1.044788
0
VERTEX
8
0
10
-0.458988
20
1.050739
0
VERTEX
8
0
10
-0.452926
20
1.058050
0
VERTEX
8
0
10
-0.448363
20
1.066567
0
VERTEX
8
0
10
-0.445488
20
1.076139
0
VERTEX
8
0
10
-0.444488
20
1.086614
0
SEQEND
8
0
0
POLYLINE
8
0
66
1
40
0.008000
41
0.008000
0
VERTEX
8
0
10
-0.494488
20
1.036614
0
VERTEX
8
0
10
-0.504963
20
1.037573
0
VERTEX
8
0
10
-0.514535
20
1.040348
0
VERTEX
8
0
10
-0.523053
20
1.044788
0
VERTEX
8
0
10
-0.530363
20
1.050739
0
VERTEX
8
0
10
-0.536314
20
1.058050
0
VERTEX
8
0
10
-0.540754
20
1.066567
0
VERTEX
8
0
10
-0.543529
20
1.076139
0
VERTEX
8
0
10
-0.544488
20
1.086614
0
SEQEND
8
0
0
POLYLINE
8
0
66
1
40
0.008000
41
0.008000
0
VERTEX
8
0
10
-0.444488
20
1.086614
0
VERTEX
8
0
10
-0.394488
20
1.086614
0
SEQEND
8
0
0
POLYLINE
8
0
66
1
40
0.008000
41
0.008000
0
VERTEX
8
0
10
-0.594488
20
0.786614
0
VERTEX
8
0
10
-0.394488
20
0.786614
0
SEQEND
8
0
0
POLYLINE
8
0
66
1
40
0.008000
41
0.008000
0
VERTEX
8
0
10
-0.594488
20
1.086614
0
VERTEX
8
0
10
-0.594488
20
0.786614
0
SEQEND
8
0
0
POLYLINE
8
0
66
1
40
0.008000
41
0.008000
0
VERTEX
8
0
10
-0.394488
20
1.086614
0
VERTEX
8
0
10
-0.394488
20
0.786614
0
SEQEND
8
0
0
TEXT
8
0
10
-0.544488
20
1.096614
40
0.048000
41
1.041667
1
U3
0
POLYLINE
8
0
66
1
40
0.008000
41
0.008000
0
VERTEX
8
0
10
-0.005512
20
2.214567
0
VERTEX
8
0
10
0.044488
20
2.214567
0
SEQEND
8
0
0
POLYLINE
8
0
66
1
40
0.008000
41
0.008000
0
VERTEX
8
0
10
0.044488
20
2.189567
0
VERTEX
8
0
10
0.244488
20
2.189567
0
VERTEX
8
0
10
0.244488
20
2.239567
0
VERTEX
8
0
10
0.044488
20
2.239567
0
VERTEX
8
0
10
0.044488
20
2.189567
0
SEQEND
8
0
0
POLYLINE
8
0
66
1
40
0.008000
41
0.008000
0
VERTEX
8
0
10
0.244488
20
2.214567
0
VERTEX
8
0
10
0.294488
20
2.214567
0
SEQEND
8
0
0
TEXT
8
0
10
-0.200787
20
2.249567
40
0.048000
41
1.041667
1
R9
0
POLYLINE
8
0
66
1
40
0.008000
41
0.008000
0
VERTEX
8
0
10
-0.442913
20
1.967717
0
VERTEX
8
0
10
-0.442913
20
1.917717
0
SEQEND
8
0
0
POLYLINE
8
0
66
1
40
0.008000
41
0.008000
0
VERTEX
8
0
10
-0.467913
20
1.717717
0
VERTEX
8
0
10
-0.417913
20
1.717717
0
VERTEX
8
0
10
-0.417913
20
1.917717
0
VERTEX
8
0
10
-0.467913
20
1.917717
0
VERTEX
8
0
10
-0.467913
20
1.717717
0
SEQEND
8
0
0
POLYLINE
8
0
66
1
40
0.008000
41
0.008000
0
VERTEX
8
0
10
-0.442913
20
1.717717
0
VERTEX
8
0
10
-0.442913
20
1.667717
0
SEQEND
8
0
0
TEXT
8
0
10
-0.359913
20
1.742717
40
0.048000
41
1.041667
50
90.000000
1
R10
0
POLYLINE
8
0
66
1
40
0.008000
41
0.008000
0
VERTEX
8
0
10
-0.300787
20
-1.081890
0
VERTEX
8
0
10
-0.250787
20
-1.081890
0
SEQEND
8
0
0
POLYLINE
8
0
66
1
40
0.008000
41
0.008000
0
VERTEX
8
0
10
-0.200787
20
-1.131890
0
VERTEX
8
0
10
-0.190600
20
-1.130931
0
VERTEX
8
0
10
-0.181162
20
-1.128156
0
VERTEX
8
0
10
-0.172662
20
-1.123716
0
VERTEX
8
0
10
-0.165287
20
-1.117765
0
VERTEX
8
0
10
-0.159225
20
-1.110454
0
VERTEX
8
0
10
-0.154662
20
-1.101937
0
VERTEX
8
0
10
-0.151787
20
-1.092365
0
VERTEX
8
0
10
-0.150787
20
-1.081890
0
SEQEND
8
0
0
POLYLINE
8
0
66
1
40
0.008000
41
0.008000
0
VERTEX
8
0
10
-0.200787
20
-1.131890
0
VERTEX
8
0
10
-0.211262
20
-1.130931
0
VERTEX
8
0
10
-0.220834
20
-1.128156
0
VERTEX
8
0
10
-0.229352
20
-1.123716
0
VERTEX
8
0
10
-0.236662
20
-1.117765
0
VERTEX
8
0
10
-0.242613
20
-1.110454
0
VERTEX
8
0
10
-0.247053
20
-1.101937
0
VERTEX
8
0
10
-0.249828
20
-1.092365
0
VERTEX
8
0
10
-0.250787
20
-1.081890
0
SEQEND
8
0
0
POLYLINE
8
0
66
1
40
0.008000
41
0.008000
0
VERTEX
8
0
10
-0.150787
20
-1.081890
0
VERTEX
8
0
10
-0.100787
20
-1.081890
0
SEQEND
8
0
0
POLYLINE
8
0
66
1
40
0.008000
41
0.008000
0
VERTEX
8
0
10
-0.300787
20
-1.381890
0
VERTEX
8
0
10
-0.100787
20
-1.381890
0
SEQEND
8
0
0
POLYLINE
8
0
66
1
40
0.008000
41
0.008000
0
VERTEX
8
0
10
-0.300787
20
-1.081890
0
VERTEX
8
0
10
-0.300787
20
-1.381890
0
SEQEND
8
0
0
POLYLINE
8
0
66
1
40
0.008000
41
0.008000
0
VERTEX
8
0
10
-0.100787
20
-1.081890
0
VERTEX
8
0
10
-0.100787
20
-1.381890
0
SEQEND
8
0
0
TEXT
8
0
10
-0.275787
20
-1.071890
40
0.048000
41
1.041667
1
BR1
0
POLYLINE
8
0
66
1
40
0.008000
41
0.008000
0
VERTEX
8
0
10
-0.646063
20
-1.481890
0
VERTEX
8
0
10
-0.646063
20
-1.431890
0
SEQEND
8
0
0
POLYLINE
8
0
66
1
40
0.008000
41
0.008000
0
VERTEX
8
0
10
-0.671063
20
-1.431890
0
VERTEX
8
0
10
-0.621063
20
-1.431890
0
VERTEX
8
0
10
-0.621063
20
-1.231890
0
VERTEX
8
0
10
-0.671063
20
-1.231890
0
VERTEX
8
0
10
-0.671063
20
-1.431890
0
SEQEND
8
0
0
POLYLINE
8
0
66
1
40
0.008000
41
0.008000
0
VERTEX
8
0
10
-0.646063
20
-1.231890
0
VERTEX
8
0
10
-0.646063
20
-1.181890
0
SEQEND
8
0
0
TEXT
8
0
10
-0.681063
20
-1.381890
40
0.048000
41
1.041667
50
90.000000
1
R2
0
POLYLINE
8
0
66
1
40
0.008000
41
0.008000
0
VERTEX
8
0
10
-0.694488
20
-0.836614
0
VERTEX
8
0
10
-0.644488
20
-0.836614
0
SEQEND
8
0
0
POLYLINE
8
0
66
1
40
0.008000
41
0.008000
0
VERTEX
8
0
10
-0.644488
20
-0.861614
0
VERTEX
8
0
10
-0.444488
20
-0.861614
0
VERTEX
8
0
10
-0.444488
20
-0.811614
0
VERTEX
8
0
10
-0.644488
20
-0.811614
0
VERTEX
8
0
10
-0.644488
20
-0.861614
0
SEQEND
8
0
0
POLYLINE
8
0
66
1
40
0.008000
41
0.008000
0
VERTEX
8
0
10
-0.444488
20
-0.836614
0
VERTEX
8
0
10
-0.394488
20
-0.836614
0
SEQEND
8
0
0
TEXT
8
0
10
-0.594488
20
-0.801614
40
0.048000
41
1.041667
1
R3
0
POLYLINE
8
0
66
1
40
0.008000
41
0.008000
0
VERTEX
8
0
10
-0.103937
20
-0.836614
0
VERTEX
8
0
10
-0.053937
20
-0.836614
0
SEQEND
8
0
0
POLYLINE
8
0
66
1
40
0.008000
41
0.008000
0
VERTEX
8
0
10
-0.053937
20
-0.861614
0
VERTEX
8
0
10
0.146063
20
-0.861614
0
VERTEX
8
0
10
0.146063
20
-0.811614
0
VERTEX
8
0
10
-0.053937
20
-0.811614
0
VERTEX
8
0
10
-0.053937
20
-0.861614
0
SEQEND
8
0
0
POLYLINE
8
0
66
1
40
0.008000
41
0.008000
0
VERTEX
8
0
10
0.146063
20
-0.836614
0
VERTEX
8
0
10
0.196063
20
-0.836614
0
SEQEND
8
0
0
TEXT
8
0
10
-0.003937
20
-0.801614
40
0.048000
41
1.041667
1
R4
0
POLYLINE
8
0
66
1
40
0.008000
41
0.008000
0
VERTEX
8
0
10
-0.646063
20
-1.674016
0
VERTEX
8
0
10
-0.646063
20
-1.724016
0
SEQEND
8
0
0
POLYLINE
8
0
66
1
40
0.008000
41
0.008000
0
VERTEX
8
0
10
-0.671063
20
-1.924016
0
VERTEX
8
0
10
-0.621063
20
-1.924016
0
VERTEX
8
0
10
-0.621063
20
-1.724016
0
VERTEX
8
0
10
-0.671063
20
-1.724016
0
VERTEX
8
0
10
-0.671063
20
-1.924016
0
SEQEND
8
0
0
POLYLINE
8
0
66
1
40
0.008000
41
0.008000
0
VERTEX
8
0
10
-0.646063
20
-1.924016
0
VERTEX
8
0
10
-0.646063
20
-1.974016
0
SEQEND
8
0
0
TEXT
8
0
10
-0.563063
20
-1.874016
40
0.048000
41
1.041667
50
90.000000
1
R6
0
POLYLINE
8
0
66
1
40
0.008000
41
0.008000
0
VERTEX
8
0
10
-0.300787
20
-1.525591
0
VERTEX
8
0
10
-0.250787
20
-1.525591
0
SEQEND
8
0
0
POLYLINE
8
0
66
1
40
0.008000
41
0.008000
0
VERTEX
8
0
10
-0.250787
20
-1.550591
0
VERTEX
8
0
10
-0.050787
20
-1.550591
0
VERTEX
8
0
10
-0.050787
20
-1.500591
0
VERTEX
8
0
10
-0.250787
20
-1.500591
0
VERTEX
8
0
10
-0.250787
20
-1.550591
0
SEQEND
8
0
0
POLYLINE
8
0
66
1
40
0.008000
41
0.008000
0
VERTEX
8
0
10
-0.050787
20
-1.525591
0
VERTEX
8
0
10
-0.000787
20
-1.525591
0
SEQEND
8
0
0
TEXT
8
0
10
-0.200787
20
-1.490591
40
0.048000
41
1.041667
1
R5
0
POLYLINE
8
0
66
1
40
0.008000
41
0.008000
0
VERTEX
8
0
10
-0.078937
20
-1.720866
0
VERTEX
8
0
10
-0.228937
20
-1.720866
0
SEQEND
8
0
0
POLYLINE
8
0
66
1
40
0.008000
41
0.008000
0
VERTEX
8
0
10
-0.058937
20
-1.770866
0
VERTEX
8
0
10
-0.059796
20
-1.761540
0
VERTEX
8
0
10
-0.062062
20
-1.752507
0
VERTEX
8
0
10
-0.068937
20
-1.736491
0
VERTEX
8
0
10
-0.078937
20
-1.720866
0
SEQEND
8
0
0
POLYLINE
8
0
66
1
40
0.008000
41
0.008000
0
VERTEX
8
0
10
-0.058937
20
-1.770866
0
VERTEX
8
0
10
-0.059276
20
-1.791313
0
VERTEX
8
0
10
-0.063761
20
-1.810222
0
VERTEX
8
0
10
-0.071967
20
-1.827226
0
VERTEX
8
0
10
-0.083468
20
-1.841960
0
VERTEX
8
0
10
-0.097841
20
-1.854057
0
VERTEX
8
0
10
-0.114660
20
-1.863151
0
VERTEX
8
0
10
-0.133500
20
-1.868876
0
VERTEX
8
0
10
-0.153937
20
-1.870866
0
SEQEND
8
0
0
POLYLINE
8
0
66
1
40
0.008000
41
0.008000
0
VERTEX
8
0
10
-0.248937
20
-1.770866
0
VERTEX
8
0
10
-0.248078
20
-1.761540
0
VERTEX
8
0
10
-0.245812
20
-1.752507
0
VERTEX
8
0
10
-0.238937
20
-1.736491
0
VERTEX
8
0
10
-0.228937
20
-1.720866
0
SEQEND
8
0
0
POLYLINE
8
0
66
1
40
0.008000
41
0.008000
0
VERTEX
8
0
10
-0.248937
20
-1.770866
0
VERTEX
8
0
10
-0.248598
20
-1.791313
0
VERTEX
8
0
10
-0.244113
20
-1.810222
0
VERTEX
8
0
10
-0.235907
20
-1.827226
0
VERTEX
8
0
10
-0.224406
20
-1.841960
0
VERTEX
8
0
10
-0.210033
20
-1.854057
0
VERTEX
8
0
10
-0.193214
20
-1.863151
0
VERTEX
8
0
10
-0.174374
20
-1.868876
0
VERTEX
8
0
10
-0.153937
20
-1.870866
0
SEQEND
8
0
0
TEXT
8
0
10
-0.203937
20
-1.928866
40
0.048000
41
1.041667
1
Q1
0
POLYLINE
8
0
66
1
40
0.008000
41
0.008000
0
VERTEX
8
0
10
-0.078937
20
-1.967717
0
VERTEX
8
0
10
-0.228937
20
-1.967717
0
SEQEND
8
0
0
POLYLINE
8
0
66
1
40
0.008000
41
0.008000
0
VERTEX
8
0
10
-0.058937
20
-2.017717
0
VERTEX
8
0
10
-0.059796
20
-2.008391
0
VERTEX
8
0
10
-0.062062
20
-1.999357
0
VERTEX
8
0
10
-0.068937
20
-1.983342
0
VERTEX
8
0
10
-0.078937
20
-1.967717
0
SEQEND
8
0
0
POLYLINE
8
0
66
1
40
0.008000
41
0.008000
0
VERTEX
8
0
10
-0.058937
20
-2.017717
0
VERTEX
8
0
10
-0.059276
20
-2.038163
0
VERTEX
8
0
10
-0.063761
20
-2.057072
0
VERTEX
8
0
10
-0.071967
20
-2.074076
0
VERTEX
8
0
10
-0.083468
20
-2.088810
0
VERTEX
8
0
10
-0.097841
20
-2.100907
0
VERTEX
8
0
10
-0.114660
20
-2.110002
0
VERTEX
8
0
10
-0.133500
20
-2.115727
0
VERTEX
8
0
10
-0.153937
20
-2.117717
0
SEQEND
8
0
0
POLYLINE
8
0
66
1
40
0.008000
41
0.008000
0
VERTEX
8
0
10
-0.248937
20
-2.017717
0
VERTEX
8
0
10
-0.248078
20
-2.008391
0
VERTEX
8
0
10
-0.245812
20
-1.999357
0
VERTEX
8
0
10
-0.238937
20
-1.983342
0
VERTEX
8
0
10
-0.228937
20
-1.967717
0
SEQEND
8
0
0
POLYLINE
8
0
66
1
40
0.008000
41
0.008000
0
VERTEX
8
0
10
-0.248937
20
-2.017717
0
VERTEX
8
0
10
-0.248598
20
-2.038163
0
VERTEX
8
0
10
-0.244113
20
-2.057072
0
VERTEX
8
0
10
-0.235907
20
-2.074076
0
VERTEX
8
0
10
-0.224406
20
-2.088810
0
VERTEX
8
0
10
-0.210033
20
-2.100907
0
VERTEX
8
0
10
-0.193214
20
-2.110002
0
VERTEX
8
0
10
-0.174374
20
-2.115727
0
VERTEX
8
0
10
-0.153937
20
-2.117717
0
SEQEND
8
0
0
TEXT
8
0
10
-0.203937
20
-2.175717
40
0.048000
41
1.041667
1
Q2
0
POLYLINE
8
0
66
1
40
0.008000
41
0.008000
0
VERTEX
8
0
10
-0.527362
20
-2.250567
0
VERTEX
8
0
10
-0.377362
20
-2.250567
0
VERTEX
8
0
10
-0.377362
20
-2.178567
0
VERTEX
8
0
10
-0.527362
20
-2.178567
0
VERTEX
8
0
10
-0.527362
20
-2.250567
0
SEQEND
8
0
0
POLYLINE
8
0
66
1
40
0.008000
41
0.008000
0
VERTEX
8
0
10
-0.402362
20
-2.249567
0
VERTEX
8
0
10
-0.402362
20
-2.179567
0
SEQEND
8
0
0
POLYLINE
8
0
66
1
40
0.008000
41
0.008000
0
VERTEX
8
0
10
-0.527362
20
-2.214567
0
VERTEX
8
0
10
-0.592362
20
-2.214567
0
SEQEND
8
0
0
POLYLINE
8
0
66
1
40
0.008000
41
0.008000
0
VERTEX
8
0
10
-0.377362
20
-2.214567
0
VERTEX
8
0
10
-0.312362
20
-2.214567
0
SEQEND
8
0
0
TEXT
8
0
10
-0.502362
20
-2.308567
40
0.048000
41
1.041667
1
D1
0
POLYLINE
8
0
66
1
40
0.008000
41
0.008000
0
VERTEX
8
0
10
-0.011811
20
-2.214567
0
VERTEX
8
0
10
0.038189
20
-2.214567
0
SEQEND
8
0
0
POLYLINE
8
0
66
1
40
0.008000
41
0.008000
0
VERTEX
8
0
10
0.038189
20
-2.239567
0
VERTEX
8
0
10
0.238189
20
-2.239567
0
VERTEX
8
0
10
0.238189
20
-2.189567
0
VERTEX
8
0
10
0.038189
20
-2.189567
0
VERTEX
8
0
10
0.038189
20
-2.239567
0
SEQEND
8
0
0
POLYLINE
8
0
66
1
40
0.008000
41
0.008000
0
VERTEX
8
0
10
0.238189
20
-2.214567
0
VERTEX
8
0
10
0.288189
20
-2.214567
0
SEQEND
8
0
0
TEXT
8
0
10
0.088189
20
-2.179567
40
0.048000
41
1.041667
1
R7
0
POLYLINE
8
0
66
1
40
0.008000
41
0.008000
0
VERTEX
8
0
10
0.141339
20
-2.066142
0
VERTEX
8
0
10
0.141339
20
-2.016142
0
SEQEND
8
0
0
POLYLINE
8
0
66
1
40
0.008000
41
0.008000
0
VERTEX
8
0
10
0.116339
20
-2.016142
0
VERTEX
8
0
10
0.166339
20
-2.016142
0
VERTEX
8
0
10
0.166339
20
-1.816142
0
VERTEX
8
0
10
0.116339
20
-1.816142
0
VERTEX
8
0
10
0.116339
20
-2.016142
0
SEQEND
8
0
0
POLYLINE
8
0
66
1
40
0.008000
41
0.008000
0
VERTEX
8
0
10
0.141339
20
-1.816142
0
VERTEX
8
0
10
0.141339
20
-1.766142
0
SEQEND
8
0
0
TEXT
8
0
10
0.106339
20
-1.966142
40
0.048000
41
1.041667
50
90.000000
1
R8
0
POLYLINE
8
0
66
1
40
0.008000
41
0.008000
0
VERTEX
8
0
10
0.435039
20
-1.867717
0
VERTEX
8
0
10
0.485039
20
-1.867717
0
VERTEX
8
0
10
0.485039
20
-2.067717
0
VERTEX
8
0
10
0.285039
20
-2.067717
0
VERTEX
8
0
10
0.285039
20
-1.867717
0
VERTEX
8
0
10
0.335039
20
-1.867717
0
SEQEND
8
0
0
POLYLINE
8
0
66
1
40
0.008000
41
0.008000
0
VERTEX
8
0
10
0.385039
20
-1.917717
0
VERTEX
8
0
10
0.395227
20
-1.916757
0
VERTEX
8
0
10
0.404665
20
-1.913982
0
VERTEX
8
0
10
0.413165
20
-1.909543
0
VERTEX
8
0
10
0.420539
20
-1.903591
0
VERTEX
8
0
10
0.426602
20
-1.896281
0
VERTEX
8
0
10
0.431165
20
-1.887763
0
VERTEX
8
0
10
0.434039
20
-1.878191
0
VERTEX
8
0
10
0.435039
20
-1.867717
0
SEQEND
8
0
0
POLYLINE
8
0
66
1
40
0.008000
41
0.008000
0
VERTEX
8
0
10
0.385039
20
-1.917717
0
VERTEX
8
0
10
0.374565
20
-1.916757
0
VERTEX
8
0
10
0.364993
20
-1.913982
0
VERTEX
8
0
10
0.356475
20
-1.909543
0
VERTEX
8
0
10
0.349165
20
-1.903591
0
VERTEX
8
0
10
0.343213
20
-1.896281
0
VERTEX
8
0
10
0.338774
20
-1.887763
0
VERTEX
8
0
10
0.335998
20
-1.878191
0
VERTEX
8
0
10
0.335039
20
-1.867717
0
SEQEND
8
0
0
TEXT
8
0
10
0.335039
20
-1.857717
40
0.048000
41
1.041667
1
U2
0
POLYLINE
8
0
66
1
40
0.008000
41
0.008000
0
VERTEX
8
0
10
-0.689764
20
0.311339
0
VERTEX
8
0
10
-0.589764
20
0.311339
0
VERTEX
8
0
10
-0.589764
20
0.591339
0
VERTEX
8
0
10
-0.689764
20
0.591339
0
VERTEX
8
0
10
-0.689764
20
0.311339
0
VERTEX
8
0
10
-0.739764
20
0.311339
0
VERTEX
8
0
10
-0.739764
20
0.591339
0
VERTEX
8
0
10
-0.689764
20
0.591339
0
SEQEND
8
0
0
POLYLINE
8
0
66
1
40
0.008000
41
0.008000
0
VERTEX
8
0
10
-0.689764
20
0.311339
0
VERTEX
8
0
10
-0.739764
20
0.361339
0
SEQEND
8
0
0
POLYLINE
8
0
66
1
40
0.008000
41
0.008000
0
VERTEX
8
0
10
-0.689764
20
0.361339
0
VERTEX
8
0
10
-0.739764
20
0.411339
0
SEQEND
8
0
0
POLYLINE
8
0
66
1
40
0.008000
41
0.008000
0
VERTEX
8
0
10
-0.689764
20
0.411339
0
VERTEX
8
0
10
-0.739764
20
0.461339
0
SEQEND
8
0
0
POLYLINE
8
0
66
1
40
0.008000
41
0.008000
0
VERTEX
8
0
10
-0.689764
20
0.461339
0
VERTEX
8
0
10
-0.739764
20
0.511339
0
SEQEND
8
0
0
POLYLINE
8
0
66
1
40
0.008000
41
0.008000
0
VERTEX
8
0
10
-0.689764
20
0.511339
0
VERTEX
8
0
10
-0.739764
20
0.561339
0
SEQEND
8
0
0
POLYLINE
8
0
66
1
40
0.008000
41
0.008000
0
VERTEX
8
0
10
-0.689764
20
0.561339
0
VERTEX
8
0
10
-0.719764
20
0.591339
0
SEQEND
8
0
0
TEXT
8
0
10
-0.749764
20
0.401339
40
0.048000
41
1.041667
50
90.000000
1
Q3
0
POLYLINE
8
0
66
1
40
0.008000
41
0.008000
0
VERTEX
8
0
10
-0.055937
20
0.586764
0
VERTEX
8
0
10
0.148063
20
0.586764
0
VERTEX
8
0
10
0.148063
20
0.691764
0
VERTEX
8
0
10
-0.055937
20
0.691764
0
VERTEX
8
0
10
-0.055937
20
0.586764
0
SEQEND
8
0
0
POLYLINE
8
0
66
1
40
0.008000
41
0.008000
0
VERTEX
8
0
10
0.116063
20
0.587764
0
VERTEX
8
0
10
0.116063
20
0.690764
0
SEQEND
8
0
0
POLYLINE
8
0
66
1
40
0.008000
41
0.008000
0
VERTEX
8
0
10
0.176063
20
0.639764
0
VERTEX
8
0
10
0.148063
20
0.639764
0
SEQEND
8
0
0
POLYLINE
8
0
66
1
40
0.008000
41
0.008000
0
VERTEX
8
0
10
-0.055937
20
0.639764
0
VERTEX
8
0
10
-0.083937
20
0.639764
0
SEQEND
8
0
0
TEXT
8
0
10
-0.003937
20
0.528764
40
0.048000
41
1.041667
1
D4
0
POLYLINE
8
0
66
1
40
0.008000
41
0.008000
0
VERTEX
8
0
10
-0.491339
20
0.541339
0
VERTEX
8
0
10
-0.441339
20
0.541339
0
SEQEND
8
0
0
POLYLINE
8
0
66
1
40
0.008000
41
0.008000
0
VERTEX
8
0
10
-0.441339
20
0.516339
0
VERTEX
8
0
10
-0.241339
20
0.516339
0
VERTEX
8
0
10
-0.241339
20
0.566339
0
VERTEX
8
0
10
-0.441339
20
0.566339
0
VERTEX
8
0
10
-0.441339
20
0.516339
0
SEQEND
8
0
0
POLYLINE
8
0
66
1
40
0.008000
41
0.008000
0
VERTEX
8
0
10
-0.241339
20
0.541339
0
VERTEX
8
0
10
-0.191339
20
0.541339
0
SEQEND
8
0
0
TEXT
8
0
10
-0.416339
20
0.576339
40
0.048000
41
1.041667
1
R12
0
POLYLINE
8
0
66
1
40
0.008000
41
0.008000
0
VERTEX
8
0
10
-0.449213
20
-2.067717
0
VERTEX
8
0
10
-0.459400
20
-2.064757
0
VERTEX
8
0
10
-0.468838
20
-2.056232
0
VERTEX
8
0
10
-0.477338
20
-2.042668
0
VERTEX
8
0
10
-0.484713
20
-2.024591
0
VERTEX
8
0
10
-0.490775
20
-2.002531
0
VERTEX
8
0
10
-0.495338
20
-1.977013
0
VERTEX
8
0
10
-0.498213
20
-1.948566
0
VERTEX
8
0
10
-0.499213
20
-1.917717
0
SEQEND
8
0
0
POLYLINE
8
0
66
1
40
0.008000
41
0.008000
0
VERTEX
8
0
10
-0.449213
20
-1.767717
0
VERTEX
8
0
10
-0.459400
20
-1.770717
0
VERTEX
8
0
10
-0.468838
20
-1.779342
0
VERTEX
8
0
10
-0.477338
20
-1.793029
0
VERTEX
8
0
10
-0.484713
20
-1.811217
0
VERTEX
8
0
10
-0.490775
20
-1.833342
0
VERTEX
8
0
10
-0.495338
20
-1.858842
0
VERTEX
8
0
10
-0.498213
20
-1.887154
0
VERTEX
8
0
10
-0.499213
20
-1.917717
0
SEQEND
8
0
0
POLYLINE
8
0
66
1
40
0.008000
41
0.008000
0
VERTEX
8
0
10
-0.449213
20
-1.767717
0
VERTEX
8
0
10
-0.439025
20
-1.770717
0
VERTEX
8
0
10
-0.429587
20
-1.779342
0
VERTEX
8
0
10
-0.421087
20
-1.793029
0
VERTEX
8
0
10
-0.413713
20
-1.811217
0
VERTEX
8
0
10
-0.407650
20
-1.833342
0
VERTEX
8
0
10
-0.403087
20
-1.858842
0
VERTEX
8
0
10
-0.400213
20
-1.887154
0
VERTEX
8
0
10
-0.399213
20
-1.917717
0
SEQEND
8
0
0
POLYLINE
8
0
66
1
40
0.008000
41
0.008000
0
VERTEX
8
0
10
-0.449213
20
-2.067717
0
VERTEX
8
0
10
-0.439025
20
-2.064757
0
VERTEX
8
0
10
-0.429587
20
-2.056232
0
VERTEX
8
0
10
-0.421087
20
-2.042668
0
VERTEX
8
0
10
-0.413713
20
-2.024591
0
VERTEX
8
0
10
-0.407650
20
-2.002531
0
VERTEX
8
0
10
-0.403087
20
-1.977013
0
VERTEX
8
0
10
-0.400213
20
-1.948566
0
VERTEX
8
0
10
-0.399213
20
-1.917717
0
SEQEND
8
0
0
TEXT
8
0
10
-0.509213
20
-1.967717
40
0.048000
41
1.041667
50
90.000000
1
C1
0
CIRCLE
8
0
10
-0.639764
20
1.230315
40
0.050000
0
CIRCLE
8
0
10
-0.639764
20
1.230315
40
0.025000
0
TEXT
8
0
10
-0.839764
20
1.290315
40
0.048000
41
1.041667
1
J-DIMMER
0
CIRCLE
8
0
10
0.541339
20
-1.722441
40
0.050000
0
CIRCLE
8
0
10
0.541339
20
-1.722441
40
0.025000
0
TEXT
8
0
10
0.391339
20
-1.662441
40
0.048000
41
1.041667
1
J-NULL
0
CIRCLE
8
0
10
-0.147638
20
0.442913
40
0.050000
0
CIRCLE
8
0
10
-0.147638
20
0.442913
40
0.025000
0
TEXT
8
0
10
-0.247638
20
0.502913
40
0.048000
41
1.041667
1
J-RL
0
CIRCLE
8
0
10
0.321063
20
0.147638
40
0.015000
0
POLYLINE
8
0
66
1
40
0.006000
41
0.006000
0
VERTEX
8
0
10
0.196063
20
0.292638
0
VERTEX
8
0
10
0.196063
20
-0.097362
0
VERTEX
8
0
10
0.296063
20
-0.097362
0
VERTEX
8
0
10
0.296063
20
0.292638
0
VERTEX
8
0
10
0.196063
20
0.292638
0
SEQEND
8
0
0
TEXT
8
0
10
0.400063
20
0.047638
40
0.048000
41
1.041667
50
90.000000
1
J3
0
ENDSEC
0
EOF

